<svg width="43" height="43" viewBox="0 0 43 43" fill="none" xmlns="http://www.w3.org/2000/svg">
<g filter="url(#filter0_ii_11048_10443)">
<path d="M1.5 12.1667C1.5 8.43298 1.5 6.56614 2.22662 5.14006C2.86578 3.88565 3.88565 2.86578 5.14006 2.22662C6.56614 1.5 8.43298 1.5 12.1667 1.5H30.8333C34.567 1.5 36.4339 1.5 37.8599 2.22662C39.1143 2.86578 40.1342 3.88565 40.7734 5.14006C41.5 6.56614 41.5 8.43298 41.5 12.1667V30.8333C41.5 34.567 41.5 36.4339 40.7734 37.8599C40.1342 39.1143 39.1143 40.1342 37.8599 40.7734C36.4339 41.5 34.567 41.5 30.8333 41.5H12.1667C8.43298 41.5 6.56614 41.5 5.14006 40.7734C3.88565 40.1342 2.86578 39.1143 2.22662 37.8599C1.5 36.4339 1.5 34.567 1.5 30.8333V12.1667Z" fill="#F9F8FF"/>
<path d="M30.833 1.15234C32.6941 1.15234 34.1111 1.15287 35.2402 1.24512C36.3733 1.3377 37.2475 1.52462 38.0176 1.91699C39.3373 2.58944 40.4106 3.66267 41.083 4.98242C41.4754 5.75254 41.6623 6.62666 41.7549 7.75977C41.8471 8.88887 41.8477 10.3059 41.8477 12.167V30.833C41.8477 32.6941 41.8471 34.1111 41.7549 35.2402C41.6623 36.3733 41.4754 37.2475 41.083 38.0176C40.4106 39.3373 39.3373 40.4106 38.0176 41.083C37.2475 41.4754 36.3733 41.6623 35.2402 41.7549C34.1111 41.8471 32.6941 41.8477 30.833 41.8477H12.167C10.3059 41.8477 8.88887 41.8471 7.75977 41.7549C6.62666 41.6623 5.75254 41.4754 4.98242 41.083C3.66267 40.4106 2.58944 39.3373 1.91699 38.0176C1.52462 37.2475 1.3377 36.3733 1.24512 35.2402C1.15287 34.1111 1.15234 32.6941 1.15234 30.833V12.167C1.15234 10.3059 1.15287 8.88887 1.24512 7.75977C1.3377 6.62666 1.52462 5.75254 1.91699 4.98242C2.58944 3.66267 3.66267 2.58944 4.98242 1.91699C5.75254 1.52462 6.62666 1.3377 7.75977 1.24512C8.88887 1.15287 10.3059 1.15234 12.167 1.15234H30.833Z" stroke="#F1F2F9" stroke-width="0.694444"/>
<path d="M30.1282 22.5877C30.0142 22.5385 29.8852 22.5365 29.7697 22.5823C29.6542 22.6281 29.5616 22.7179 29.5123 22.8319C28.8672 24.2688 27.9591 25.5725 26.8348 26.6757C23.6857 29.8252 19.6835 30.9478 17.9121 29.1764C17.6158 28.8515 17.3898 28.469 17.2481 28.0527C17.1063 27.6365 17.052 27.1954 17.0885 26.7572C17.092 26.633 17.0459 26.5124 16.9604 26.4222C16.875 26.3319 16.7572 26.2792 16.6329 26.2758C16.5711 26.2727 16.5092 26.2822 16.4511 26.3036C16.393 26.3251 16.3398 26.3581 16.2948 26.4007C16.2498 26.4433 16.2139 26.4946 16.1893 26.5514C16.1647 26.6082 16.1518 26.6695 16.1515 26.7314C16.1098 27.2973 16.1857 27.8656 16.3747 28.4006C16.5637 28.9356 16.8615 29.4256 17.2493 29.8397C17.6438 30.2138 18.1092 30.505 18.6181 30.6961C19.1271 30.8872 19.6691 30.9744 20.2123 30.9525C22.4314 30.9525 25.1623 29.6742 27.4976 27.3385C28.7055 26.1515 29.6807 24.7491 30.3729 23.2036C30.4221 23.0895 30.424 22.9605 30.3781 22.845C30.3322 22.7295 30.2423 22.6369 30.1282 22.5877Z" fill="url(#paint0_linear_11048_10443)"/>
<path d="M13.6981 18.0782C13.7857 18.1641 13.9035 18.2123 14.0262 18.2123C14.0762 18.2121 14.1259 18.2042 14.1734 18.1888L16.7112 17.3507L17.5278 18.1504C12.5225 23.4177 11.1251 30.2535 14.45 33.5788C15.0949 34.1923 15.8563 34.6701 16.6892 34.9841C17.522 35.2981 18.4094 35.4419 19.2987 35.407C20.1246 35.4016 20.9472 35.3037 21.7512 35.1149C24.7001 34.4418 27.7278 32.6671 30.2769 30.1181C32.8259 27.569 34.6001 24.5399 35.2733 21.5924C35.9642 18.5657 35.419 15.9731 33.7381 14.2916C30.3875 10.941 23.4725 12.3866 18.1887 17.4848L17.375 16.6879L18.2253 14.2157C18.2542 14.1319 18.2586 14.0416 18.2382 13.9553C18.2178 13.869 18.1733 13.7902 18.11 13.7282L11.99 7.73102C11.9283 7.67068 11.8511 7.62855 11.767 7.60926C11.6829 7.58998 11.5951 7.59429 11.5132 7.62173C11.4314 7.64917 11.3587 7.69866 11.3033 7.76476C11.2478 7.83086 11.2116 7.91099 11.1987 7.99633L10.7694 10.8595L7.8392 11.2813C7.75308 11.2941 7.67221 11.3306 7.60566 11.3867C7.5391 11.4428 7.48949 11.5164 7.46239 11.5991C7.43528 11.6818 7.43175 11.7705 7.45219 11.8551C7.47263 11.9397 7.51623 12.017 7.57811 12.0782L13.6981 18.0782ZM28.8697 13.3954C29.6391 13.3618 30.4076 13.4823 31.1298 13.7499C31.852 14.0175 32.5135 14.4267 33.0753 14.9535C34.52 16.3987 34.9761 18.6815 34.3597 21.3829C33.725 24.1621 32.0398 27.0285 29.614 29.4543C27.1883 31.8801 24.3214 33.5657 21.5422 34.1999C18.8408 34.8159 16.5575 34.3607 15.1133 32.916C12.1484 29.9512 13.5462 23.7032 18.1972 18.8066L19.3878 19.9734C18.252 21.1626 17.3505 22.5552 16.7305 24.0782C16.7077 24.1357 16.6966 24.1971 16.6977 24.2589C16.6988 24.3207 16.7121 24.3816 16.7368 24.4383C16.7616 24.4949 16.7973 24.5461 16.8419 24.5889C16.8865 24.6317 16.9391 24.6652 16.9967 24.6876C17.051 24.7087 17.1086 24.7197 17.1669 24.7199C17.2613 24.7199 17.3535 24.6915 17.4315 24.6382C17.5094 24.5849 17.5695 24.5093 17.6037 24.4213C18.177 23.0147 19.0093 21.7282 20.0572 20.6287L21.4465 21.9904C20.8108 22.6795 20.3216 23.4906 20.0089 24.3745C19.6742 25.4057 19.7872 26.2724 20.3272 26.812C20.5066 26.9828 20.7185 27.1157 20.9503 27.2028C21.1822 27.29 21.4292 27.3295 21.6767 27.3191C22.0469 27.3137 22.414 27.2504 22.7647 27.1316C23.8087 26.7556 24.752 26.144 25.5214 25.3443C26.3212 24.5747 26.9329 23.6313 27.3092 22.5871C27.6434 21.5559 27.5305 20.6896 26.9905 20.1496C26.4505 19.6096 25.5842 19.4962 24.553 19.8313C23.6426 20.1541 22.8092 20.6625 22.1056 21.3243L20.72 19.9649C23.8189 17.0427 27.6219 16.0406 29.3361 17.7538C30.0626 18.4804 30.3205 19.6551 30.0636 21.0618C30.0525 21.1224 30.0535 21.1845 30.0665 21.2447C30.0795 21.3049 30.1042 21.362 30.1392 21.4126C30.1742 21.4632 30.2188 21.5065 30.2706 21.5399C30.3223 21.5733 30.3801 21.5961 30.4407 21.6072C30.5013 21.6182 30.5634 21.6173 30.6236 21.6043C30.6838 21.5913 30.7408 21.5666 30.7915 21.5316C30.8421 21.4966 30.8854 21.4519 30.9188 21.4002C30.9522 21.3485 30.975 21.2907 30.9861 21.2301C31.3001 19.5116 30.9495 18.0426 29.9989 17.091C27.8867 14.9816 23.577 15.966 20.0506 19.3091L18.8595 18.142C22.0372 15.082 25.7989 13.3954 28.8697 13.3954ZM23.3351 23.8387C23.424 23.9257 23.5437 23.9739 23.6681 23.9726C23.7924 23.9713 23.9112 23.9207 23.9982 23.8319C24.0852 23.7431 24.1334 23.6233 24.1321 23.499C24.1308 23.3746 24.0802 23.2559 23.9914 23.1688L22.7773 21.9791C23.3729 21.4232 24.0757 20.9948 24.8426 20.7201C25.0994 20.6323 25.3682 20.5848 25.6395 20.5795C25.7644 20.5711 25.8898 20.5875 26.0084 20.6277C26.1269 20.6679 26.2364 20.7312 26.3305 20.8138C26.6047 21.0876 26.6375 21.6295 26.42 22.2993C26.0899 23.2026 25.5566 24.0179 24.8614 24.6824C24.1968 25.3775 23.3815 25.9108 22.4783 26.241C21.8084 26.4585 21.267 26.4257 20.9928 26.1515C20.7186 25.8773 20.6862 25.3359 20.9033 24.666C21.1712 23.9197 21.5856 23.2344 22.122 22.6504L23.3351 23.8387ZM17.2414 14.1895L16.632 15.9604L11.6801 11.107L11.9895 9.04446L17.2414 14.1895ZM11.0187 11.7712L15.9575 16.6106L14.1505 17.2068L8.9117 12.0745L11.0187 11.7712Z" fill="url(#paint1_linear_11048_10443)"/>
</g>
<defs>
<filter id="filter0_ii_11048_10443" x="0.805542" y="-1.69434" width="41.3889" height="45.1387" filterUnits="userSpaceOnUse" color-interpolation-filters="sRGB">
<feFlood flood-opacity="0" result="BackgroundImageFix"/>
<feBlend mode="normal" in="SourceGraphic" in2="BackgroundImageFix" result="shape"/>
<feColorMatrix in="SourceAlpha" type="matrix" values="0 0 0 0 0 0 0 0 0 0 0 0 0 0 0 0 0 0 127 0" result="hardAlpha"/>
<feOffset dy="-2.5"/>
<feGaussianBlur stdDeviation="2.08333"/>
<feComposite in2="hardAlpha" operator="arithmetic" k2="-1" k3="1"/>
<feColorMatrix type="matrix" values="0 0 0 0 0.403797 0 0 0 0 0.377879 0 0 0 0 0.70963 0 0 0 0.2 0"/>
<feBlend mode="normal" in2="shape" result="effect1_innerShadow_11048_10443"/>
<feColorMatrix in="SourceAlpha" type="matrix" values="0 0 0 0 0 0 0 0 0 0 0 0 0 0 0 0 0 0 127 0" result="hardAlpha"/>
<feOffset dy="1.25"/>
<feGaussianBlur stdDeviation="0.833333"/>
<feComposite in2="hardAlpha" operator="arithmetic" k2="-1" k3="1"/>
<feColorMatrix type="matrix" values="0 0 0 0 1 0 0 0 0 1 0 0 0 0 1 0 0 0 0.4 0"/>
<feBlend mode="normal" in2="effect1_innerShadow_11048_10443" result="effect2_innerShadow_11048_10443"/>
</filter>
<linearGradient id="paint0_linear_11048_10443" x1="16.1404" y1="26.7526" x2="30.4112" y2="26.7526" gradientUnits="userSpaceOnUse">
<stop stop-color="#D62828"/>
<stop offset="1" stop-color="#003F91"/>
</linearGradient>
<linearGradient id="paint1_linear_11048_10443" x1="7.43909" y1="21.5048" x2="35.5652" y2="21.5048" gradientUnits="userSpaceOnUse">
<stop stop-color="#D62828"/>
<stop offset="1" stop-color="#003F91"/>
</linearGradient>
</defs>
</svg>
