<svg width="30" height="36" viewBox="0 0 30 36" fill="none" xmlns="http://www.w3.org/2000/svg">
<g opacity="0.8">
<path d="M26.7356 18.8038C26.7258 18.7654 26.7244 18.6936 26.7321 18.6433C26.7411 18.5868 26.783 18.5735 26.8451 18.6084C26.8988 18.6391 27.18 18.9782 27.4696 19.362C27.7584 19.7457 28.1952 20.4525 28.4401 20.9319C28.6843 21.4119 28.9997 22.1494 29.1399 22.5715C29.2809 22.9937 29.4567 23.6921 29.5307 24.124C29.6179 24.6312 29.6653 25.2362 29.6653 25.8334C29.6646 26.3421 29.6165 27.0558 29.5565 27.4207C29.4972 27.7857 29.3695 28.3194 29.2725 28.6069C29.1755 28.895 28.9864 29.366 28.8532 29.6535C28.7192 29.9416 28.4436 30.428 28.2399 30.735C28.0354 31.042 27.5428 31.635 27.1451 32.0537C26.7467 32.4716 26.1697 33.0089 25.8627 33.2482C25.5557 33.4868 25.0924 33.8119 24.8336 33.9703C24.5747 34.1287 24.1428 34.3687 23.8742 34.5027C23.6056 34.6367 23.1506 34.8411 22.8625 34.9562C22.575 35.0713 21.9701 35.273 21.5193 35.4049C21.0686 35.536 20.4016 35.6937 20.0367 35.7537C19.6718 35.8144 18.9817 35.8947 18.5017 35.9316C18.0223 35.9693 17.2995 36 16.8969 36C16.4943 36 15.8664 35.9686 15.5014 35.9295C15.1365 35.8912 14.8072 35.8305 14.7688 35.7949C14.7228 35.7523 14.7451 35.663 14.8337 35.5353C14.9077 35.4279 15.1428 35.1558 15.357 34.9304C15.5705 34.705 15.9187 34.3876 16.1294 34.225C16.3401 34.0624 16.7329 33.7945 17.0016 33.6305C17.2702 33.4666 17.7879 33.1833 18.1528 33.0012C18.5177 32.8191 19.3655 32.4011 20.0367 32.0732C20.7086 31.7453 21.6345 31.2296 22.095 30.9268C22.5555 30.624 23.1681 30.1865 23.4555 29.9549C23.7437 29.7232 24.2412 29.2544 24.5614 28.9132C24.8817 28.572 25.3331 28.0103 25.5641 27.665C25.795 27.3196 26.1097 26.7858 26.2632 26.4788C26.4167 26.1718 26.6302 25.6541 26.737 25.3276C26.843 25.001 26.9819 24.468 27.0454 24.1414C27.1082 23.8149 27.1786 23.1248 27.2023 22.6064C27.2275 22.0406 27.2107 21.3582 27.1605 20.897C27.1144 20.4749 27.0042 19.8469 26.9149 19.5015C26.8256 19.1561 26.7446 18.8422 26.7356 18.8038Z" fill="#017FC0"/>
<path d="M3.41187 12.5242C3.5856 12.2556 3.76143 12.0121 3.8019 11.9835C3.84725 11.9521 3.88702 11.9939 3.90307 12.0881C3.91702 12.1746 3.8947 12.4495 3.85283 12.6986C3.81097 12.9477 3.75724 13.6385 3.73422 14.2336C3.71119 14.8281 3.72864 15.927 3.77329 16.6757C3.81795 17.4243 3.88632 18.3188 3.9247 18.6642C3.96307 19.0096 4.05517 19.6061 4.12844 19.9899C4.20239 20.3736 4.35938 20.9855 4.478 21.3505C4.59661 21.7154 4.83593 22.3112 5.00897 22.6761C5.182 23.0411 5.4911 23.5902 5.69623 23.8972C5.90136 24.2042 6.26976 24.6905 6.51606 24.9786C6.76166 25.2661 7.38473 25.8773 7.90035 26.3364C8.41598 26.7962 9.21488 27.5498 9.67538 28.0124C10.1359 28.475 10.6145 29.0255 10.7387 29.2362C10.8636 29.4462 11.0513 29.8537 11.156 30.1418C11.3234 30.6016 11.3471 30.7663 11.3478 31.5024C11.3492 32.1918 11.322 32.4199 11.1929 32.7932C11.1064 33.043 10.9104 33.4505 10.4764 34.1538L10.6689 34.1733C10.775 34.1838 11.0346 34.1105 11.2453 34.01C11.4616 33.9068 11.8369 33.6242 12.1049 33.3626C12.4377 33.0374 12.6603 32.7409 12.8445 32.3746C12.9896 32.0864 13.1647 31.6001 13.2331 31.2931C13.3294 30.8633 13.3496 30.5584 13.321 29.9674C13.2938 29.4057 13.2401 29.0785 13.1187 28.7464C13.028 28.4973 12.8438 28.1066 12.7098 27.8798C12.5758 27.6523 12.1684 27.1535 11.8034 26.7704C11.4392 26.3881 10.5126 25.518 9.74515 24.8384C8.97765 24.1581 8.11037 23.3543 7.81802 23.0515C7.50125 22.7236 7.26752 22.4173 7.23821 22.2924C7.2117 22.1773 7.22426 21.8947 7.26682 21.6644C7.30868 21.4342 7.42869 21.0888 7.53265 20.8969C7.63592 20.7051 7.89408 20.3708 8.10549 20.1546C8.36365 19.8894 8.66018 19.6787 9.01253 19.5092C9.35512 19.3445 9.7291 19.2287 10.094 19.1749C10.5427 19.108 10.7548 19.1101 11.1755 19.1861C11.4637 19.2377 11.8718 19.3668 12.0825 19.4722C12.3086 19.5852 12.6386 19.8469 12.8849 20.1078C13.127 20.3639 13.3992 20.7483 13.5303 21.0204C13.6552 21.2786 13.7808 21.49 13.8094 21.49C13.838 21.4893 13.9706 21.2779 14.1032 21.019C14.2427 20.7462 14.5218 20.3695 14.766 20.1239C15.0367 19.8503 15.3493 19.6222 15.641 19.484C15.9138 19.355 16.3171 19.237 16.6527 19.1889C17.0608 19.1296 17.3378 19.1275 17.6818 19.1826C17.9407 19.2238 18.3174 19.3187 18.5191 19.394C18.7207 19.4701 19.0396 19.6347 19.2287 19.7603C19.4171 19.8866 19.6996 20.1336 19.8566 20.3088C20.0129 20.4839 20.2418 20.8132 20.3646 21.0414C20.4881 21.2688 20.6527 21.7063 20.7316 22.0133C20.8321 22.4019 20.8746 22.7836 20.8725 23.2692C20.8704 23.653 20.8265 24.2021 20.7748 24.4902C20.7232 24.7777 20.5969 25.2647 20.4944 25.5717C20.3911 25.8787 20.1573 26.4439 19.9738 26.8276C19.7903 27.2114 19.3557 27.9489 19.0082 28.4673C18.66 28.9857 18.0956 29.7232 17.753 30.107C17.4111 30.4907 16.772 31.1459 16.3338 31.5638C15.8949 31.9811 15.1442 32.6181 14.6641 32.9795C14.0787 33.4205 13.494 33.7847 12.8849 34.0875C12.3861 34.3352 11.7267 34.6045 11.4197 34.6868C10.9822 34.8027 10.6648 34.8348 9.95447 34.8327C9.38582 34.8313 8.8395 34.7866 8.48924 34.7134C8.18224 34.6492 7.69592 34.5194 7.40776 34.4252C7.12029 34.3303 6.50769 34.068 6.04719 33.8412C5.58669 33.6151 4.95873 33.2398 4.65173 33.0081C4.34473 32.7765 3.8619 32.3585 3.57793 32.0794C3.29465 31.8003 2.89625 31.3524 2.69251 31.0838C2.48947 30.8151 2.16293 30.3288 1.96757 30.0023C1.77221 29.6758 1.47288 29.0792 1.30333 28.6766C1.13309 28.274 0.900744 27.5826 0.786316 27.1416C0.671889 26.7006 0.523273 25.9938 0.454895 25.5717C0.363493 25.0017 0.332095 24.4177 0.334886 23.3041C0.336979 22.3091 0.378145 21.4984 0.457686 20.8969C0.522575 20.3981 0.667005 19.5664 0.777246 19.048C0.887487 18.5295 1.06122 17.8395 1.16309 17.513C1.26496 17.1864 1.46241 16.6059 1.60196 16.2222C1.74081 15.8384 2.13433 14.9593 2.47552 14.2685C2.81671 13.5778 3.23744 12.7928 3.41187 12.5242Z" fill="#B31222"/>
<path d="M12.5012 1.70525C12.8654 1.36755 13.4717 0.846345 13.8485 0.546322C14.2246 0.2456 14.5755 0 14.6272 0C14.6997 0 14.7311 0.207225 14.7611 0.889604C14.7828 1.37871 14.8483 2.04644 14.907 2.37228C14.9649 2.69881 15.0939 3.27932 15.1923 3.66308C15.2914 4.04683 15.5133 4.72153 15.6849 5.16319C15.8566 5.60485 16.1719 6.29491 16.3861 6.69819C16.5996 7.10148 16.9227 7.65059 17.1034 7.91922C17.2848 8.18785 17.6686 8.69021 17.9553 9.03559C18.2428 9.38096 18.6712 9.84425 18.9084 10.0647C19.145 10.2852 19.3703 10.4506 19.4087 10.431C19.4471 10.4115 19.4785 10.3096 19.4778 10.2043C19.4778 10.0989 19.588 9.78495 19.722 9.50655C19.8566 9.22816 20.0925 8.87511 20.246 8.72161C20.3995 8.56811 20.6821 8.36437 20.8739 8.26808C21.0658 8.17249 21.2388 8.09365 21.2577 8.09365C21.2765 8.09365 21.2919 8.30576 21.2919 8.56462C21.2912 8.82348 21.3414 9.30212 21.4035 9.62865C21.4656 9.95519 21.6261 10.5357 21.76 10.9195C21.894 11.3032 22.1522 11.9312 22.3329 12.3149C22.5136 12.6987 23.0404 13.7034 23.5037 14.5476C23.9663 15.3919 24.4477 16.2871 24.5726 16.5362C24.6975 16.7853 24.9347 17.3351 25.1001 17.7572C25.2647 18.1793 25.4699 18.8547 25.5557 19.2573C25.6827 19.8546 25.712 20.216 25.7134 21.211C25.7141 22.2017 25.6862 22.5638 25.5648 23.1297C25.4817 23.5135 25.3317 24.0786 25.2298 24.3856C25.128 24.6926 24.9033 25.2264 24.7303 25.5718C24.5572 25.9171 24.2649 26.4195 24.08 26.6881C23.8951 26.9567 23.4827 27.4556 23.1639 27.7968C22.8443 28.138 22.3475 28.6062 22.0601 28.8364C21.7719 29.0667 21.317 29.403 21.0484 29.583C20.7797 29.763 20.4106 29.994 20.2285 30.0958C20.0464 30.1977 19.8657 30.2814 19.8273 30.2814C19.789 30.2814 19.7576 30.25 19.7576 30.2116C19.7576 30.1733 19.9404 29.9144 20.1636 29.636C20.3869 29.3576 20.6758 28.9732 20.8063 28.7813C20.936 28.5894 21.2047 28.1024 21.4035 27.6998C21.6017 27.2972 21.8626 26.6609 21.9819 26.2869C22.1019 25.9129 22.2505 25.3003 22.3126 24.9264C22.3824 24.5084 22.4257 23.8428 22.425 23.1995C22.4243 22.3971 22.3887 21.9819 22.2722 21.4203C22.1885 21.0177 22.0043 20.4051 21.8626 20.0597C21.721 19.7143 21.4642 19.1847 21.2919 18.8833C21.1195 18.5812 20.7274 18.0007 20.4204 17.5932C20.1134 17.1851 19.4541 16.4427 18.9552 15.9438C18.4563 15.4442 17.483 14.5344 16.7922 13.9204C16.1015 13.3071 15.2223 12.4893 14.8386 12.1035C14.4548 11.7177 13.9399 11.1364 13.6936 10.812C13.448 10.4876 13.1424 10.0019 13.0154 9.73331C12.8884 9.46469 12.7314 9.04047 12.6673 8.79138C12.6031 8.54159 12.5514 8.07202 12.5514 7.74479C12.5514 7.41825 12.5905 6.97938 12.6386 6.76797C12.6868 6.55656 12.8556 6.09326 13.0147 5.73742C13.1738 5.38228 13.2806 5.0683 13.2526 5.03969C13.2254 5.01179 13.0838 5.08156 12.9387 5.19459C12.7942 5.30832 12.4244 5.65579 12.1174 5.96697C11.8104 6.27816 11.3548 6.82169 11.1057 7.17474C10.8566 7.5271 10.4408 8.2004 10.1826 8.66998C9.92448 9.13955 9.58817 9.83797 9.43537 10.2217C9.28257 10.6055 9.09 11.1706 9.00766 11.4776C8.9051 11.8586 8.84579 12.3351 8.82067 12.9778C8.79137 13.7299 8.80881 14.032 8.90859 14.4779C8.97766 14.7849 9.16116 15.2872 9.31676 15.5942C9.47235 15.9012 9.74028 16.3255 9.91122 16.5362C10.0829 16.7469 10.304 16.9925 10.4031 17.0818C10.5175 17.1851 10.5573 17.266 10.5127 17.3051C10.4743 17.3386 10.1764 17.3986 9.84982 17.4383C9.52329 17.4781 9.08441 17.5695 8.873 17.6414C8.66159 17.7125 8.37971 17.8284 8.24505 17.8974C8.11039 17.9665 7.84385 18.1402 7.65198 18.284C7.4601 18.4277 7.16985 18.7208 7.00658 18.9357C6.84331 19.1513 6.68632 19.3285 6.65772 19.3299C6.62911 19.3313 6.50701 19.1192 6.387 18.8589C6.26699 18.598 6.08349 18.1186 5.98022 17.7921C5.87626 17.4655 5.72904 16.9325 5.65299 16.6059C5.55251 16.1761 5.50367 15.657 5.47716 14.7221C5.44297 13.5234 5.45274 13.3678 5.62159 12.5417C5.72136 12.0526 5.91533 11.3144 6.05279 10.902C6.19024 10.4897 6.50701 9.72843 6.7561 9.21002C7.00518 8.69161 7.3687 8.00155 7.56406 7.67501C7.75943 7.34848 8.09364 6.83076 8.30645 6.52376C8.51925 6.21676 8.91138 5.683 9.17791 5.33762C9.44444 4.99225 9.83796 4.50733 10.0522 4.25963C10.2671 4.01194 10.7569 3.47399 11.1406 3.06373C11.5244 2.65346 12.137 2.04225 12.5012 1.70525Z" fill="#04266A"/>
</g>
</svg>
