<svg width="43" height="43" viewBox="0 0 43 43" fill="none" xmlns="http://www.w3.org/2000/svg">
<g filter="url(#filter0_ii_11048_10469)">
<path d="M1.5 12.1667C1.5 8.43298 1.5 6.56614 2.22662 5.14006C2.86578 3.88565 3.88565 2.86578 5.14006 2.22662C6.56614 1.5 8.43298 1.5 12.1667 1.5H30.8333C34.567 1.5 36.4339 1.5 37.8599 2.22662C39.1143 2.86578 40.1342 3.88565 40.7734 5.14006C41.5 6.56614 41.5 8.43298 41.5 12.1667V30.8333C41.5 34.567 41.5 36.4339 40.7734 37.8599C40.1342 39.1143 39.1143 40.1342 37.8599 40.7734C36.4339 41.5 34.567 41.5 30.8333 41.5H12.1667C8.43298 41.5 6.56614 41.5 5.14006 40.7734C3.88565 40.1342 2.86578 39.1143 2.22662 37.8599C1.5 36.4339 1.5 34.567 1.5 30.8333V12.1667Z" fill="#F9F8FF"/>
<path d="M30.833 1.15234C32.6941 1.15234 34.1111 1.15287 35.2402 1.24512C36.3733 1.3377 37.2475 1.52462 38.0176 1.91699C39.3373 2.58944 40.4106 3.66267 41.083 4.98242C41.4754 5.75254 41.6623 6.62666 41.7549 7.75977C41.8471 8.88887 41.8477 10.3059 41.8477 12.167V30.833C41.8477 32.6941 41.8471 34.1111 41.7549 35.2402C41.6623 36.3733 41.4754 37.2475 41.083 38.0176C40.4106 39.3373 39.3373 40.4106 38.0176 41.083C37.2475 41.4754 36.3733 41.6623 35.2402 41.7549C34.1111 41.8471 32.6941 41.8477 30.833 41.8477H12.167C10.3059 41.8477 8.88887 41.8471 7.75977 41.7549C6.62666 41.6623 5.75254 41.4754 4.98242 41.083C3.66267 40.4106 2.58944 39.3373 1.91699 38.0176C1.52462 37.2475 1.3377 36.3733 1.24512 35.2402C1.15287 34.1111 1.15234 32.6941 1.15234 30.833V12.167C1.15234 10.3059 1.15287 8.88887 1.24512 7.75977C1.3377 6.62666 1.52462 5.75254 1.91699 4.98242C2.58944 3.66267 3.66267 2.58944 4.98242 1.91699C5.75254 1.52462 6.62666 1.3377 7.75977 1.24512C8.88887 1.15287 10.3059 1.15234 12.167 1.15234H30.833Z" stroke="#F1F2F9" stroke-width="0.694444"/>
<path d="M27.356 19.9085C27.356 18.2993 26.6828 16.7435 25.5095 15.641C24.3197 14.5226 22.76 13.9613 21.1271 14.0645C18.1691 14.2481 15.7631 16.7135 15.6491 19.6769C15.5879 21.2573 16.1483 22.7615 17.2271 23.9123C18.032 24.7712 18.4187 25.2803 18.5201 26.1755C17.8781 26.3366 17.399 26.9141 17.399 27.6053C17.399 28.2791 17.855 28.8428 18.4724 29.0204C18.2582 29.2769 18.1238 29.6024 18.1238 29.9621C18.1238 30.6671 18.6209 31.2566 19.2824 31.4033C19.349 32.5703 20.3165 33.5 21.5 33.5C22.6835 33.5 23.651 32.5703 23.7176 31.4033C24.3791 31.2563 24.8762 30.6671 24.8762 29.9621C24.8762 29.6024 24.7418 29.2769 24.5276 29.0201C25.145 28.8428 25.601 28.2791 25.601 27.6053C25.601 26.9141 25.1222 26.3366 24.4802 26.1755C24.5828 25.2875 24.9737 24.7715 25.7876 23.8967C26.7973 22.8144 27.358 21.3887 27.356 19.9085ZM21.5 32.9C20.66 32.9 19.967 32.2589 19.8845 31.4405H23.1155C23.0743 31.8404 22.8863 32.2109 22.588 32.4805C22.2897 32.75 21.9021 32.8994 21.5 32.9ZM23.3975 30.8405H19.6025C19.118 30.8405 18.7238 30.4463 18.7238 29.9621C18.7238 29.4779 19.118 29.0837 19.6025 29.0837H23.3975C23.882 29.0837 24.2762 29.4779 24.2762 29.9621C24.2762 30.4463 23.882 30.8405 23.3975 30.8405ZM25.001 27.605C25.0008 27.8379 24.9081 28.0612 24.7435 28.2259C24.5788 28.3905 24.3555 28.4832 24.1226 28.4834H18.8774C18.6445 28.4832 18.4212 28.3905 18.2565 28.2259C18.0919 28.0612 17.9992 27.8379 17.999 27.605C17.9992 27.3721 18.0919 27.1488 18.2565 26.9841C18.4212 26.8195 18.6445 26.7268 18.8774 26.7266H24.1226C24.3555 26.7268 24.5788 26.8195 24.7435 26.9841C24.9081 27.1488 25.0008 27.3721 25.001 27.605ZM20.2085 21.6224H19.286C18.7772 21.6224 18.3632 21.2084 18.3632 20.6996C18.3632 20.1908 18.7772 19.7768 19.286 19.7768C19.7948 19.7768 20.2088 20.1908 20.2088 20.6996L20.2085 21.6224ZM20.8085 26.1269V22.2224H22.1915V26.1269H20.8085ZM23.8835 26.1269H22.7915V22.2224H23.7143C24.554 22.2224 25.2371 21.5393 25.2371 20.6996C25.2371 19.8599 24.554 19.1768 23.7143 19.1768C22.8746 19.1768 22.1915 19.8599 22.1915 20.6996V21.6224H20.8085V20.6996C20.8085 19.8599 20.1254 19.1768 19.2857 19.1768C18.446 19.1768 17.7629 19.8599 17.7629 20.6996C17.7629 21.5393 18.446 22.2224 19.2857 22.2224H20.2085V26.1269H19.1165C18.9929 25.0064 18.479 24.371 17.6645 23.5019C16.6964 22.469 16.1936 21.1187 16.2485 19.7C16.3505 17.0405 18.5099 14.828 21.164 14.663C22.6343 14.5724 24.0311 15.0746 25.0988 16.0784C26.1674 17.0825 26.756 18.443 26.756 19.9085C26.756 21.2417 26.2562 22.5128 25.3481 23.4881C24.5267 24.371 24.0083 25.0148 23.8835 26.1269ZM22.7915 21.6224V20.6996C22.7915 20.1908 23.2055 19.7768 23.7143 19.7768C24.2231 19.7768 24.6371 20.1908 24.6371 20.6996C24.6371 21.2084 24.2231 21.6224 23.7143 21.6224H22.7915ZM21.2 9.8V12.4772C21.2 12.5568 21.2316 12.6331 21.2879 12.6893C21.3441 12.7456 21.4204 12.7772 21.5 12.7772C21.5796 12.7772 21.6559 12.7456 21.7121 12.6893C21.7684 12.6331 21.8 12.5568 21.8 12.4772V9.8C21.8 9.72044 21.7684 9.64413 21.7121 9.58787C21.6559 9.53161 21.5796 9.5 21.5 9.5C21.4204 9.5 21.3441 9.53161 21.2879 9.58787C21.2316 9.64413 21.2 9.72044 21.2 9.8ZM16.9889 13.9859C17.0415 13.9858 17.0932 13.9719 17.1388 13.9456C17.1844 13.9192 17.2222 13.8814 17.2485 13.8358C17.2748 13.7902 17.2886 13.7385 17.2886 13.6858C17.2886 13.6332 17.2747 13.5815 17.2484 13.5359L15.9098 11.2175C15.8902 11.1831 15.8641 11.1529 15.8328 11.1287C15.8015 11.1044 15.7658 11.0866 15.7276 11.0763C15.6894 11.0659 15.6496 11.0632 15.6103 11.0683C15.5711 11.0734 15.5333 11.0862 15.499 11.106C15.4647 11.1258 15.4347 11.1521 15.4107 11.1835C15.3867 11.215 15.3691 11.2508 15.359 11.2891C15.3489 11.3273 15.3464 11.3672 15.3518 11.4064C15.3571 11.4456 15.3702 11.4834 15.3902 11.5175L16.7288 13.8359C16.7552 13.8815 16.7931 13.9194 16.8387 13.9458C16.8844 13.9721 16.9362 13.986 16.9889 13.9859ZM13.8359 16.7288L11.5175 15.3902C11.4834 15.3702 11.4456 15.3571 11.4064 15.3518C11.3672 15.3464 11.3273 15.3489 11.2891 15.359C11.2508 15.3691 11.215 15.3867 11.1835 15.4107C11.1521 15.4347 11.1258 15.4647 11.106 15.499C11.0862 15.5333 11.0734 15.5711 11.0683 15.6103C11.0632 15.6496 11.0659 15.6894 11.0763 15.7276C11.0866 15.7658 11.1044 15.8015 11.1287 15.8328C11.1529 15.8641 11.1831 15.8902 11.2175 15.9098L13.5359 17.2484C13.6045 17.284 13.6842 17.2917 13.7584 17.2701C13.8326 17.2484 13.8956 17.1989 13.9342 17.132C13.9729 17.065 13.9842 16.9858 13.9659 16.9107C13.9476 16.8356 13.901 16.7704 13.8359 16.7288ZM9.8 21.8H12.4772C12.5568 21.8 12.6331 21.7684 12.6893 21.7121C12.7456 21.6559 12.7772 21.5796 12.7772 21.5C12.7772 21.4204 12.7456 21.3441 12.6893 21.2879C12.6331 21.2316 12.5568 21.2 12.4772 21.2H9.8C9.72044 21.2 9.64413 21.2316 9.58787 21.2879C9.53161 21.3441 9.5 21.4204 9.5 21.5C9.5 21.5796 9.53161 21.6559 9.58787 21.7121C9.64413 21.7684 9.72044 21.8 9.8 21.8ZM11.3678 27.65C11.4188 27.65 11.4701 27.6371 11.5175 27.6098L13.8359 26.2712C13.8703 26.2516 13.9005 26.2255 13.9247 26.1942C13.949 26.1629 13.9668 26.1272 13.9771 26.089C13.9875 26.0508 13.9902 26.011 13.9851 25.9717C13.98 25.9325 13.9672 25.8947 13.9474 25.8604C13.9276 25.8261 13.9013 25.7961 13.8699 25.7721C13.8384 25.7481 13.8026 25.7305 13.7643 25.7204C13.7261 25.7103 13.6862 25.7078 13.647 25.7132C13.6078 25.7185 13.57 25.7316 13.5359 25.7516L11.2175 27.0902C11.1603 27.1232 11.1156 27.1742 11.0903 27.2352C11.0651 27.2962 11.0606 27.3639 11.0777 27.4276C11.0948 27.4914 11.1325 27.5478 11.1849 27.588C11.2373 27.6282 11.3018 27.65 11.3678 27.65ZM29.1641 26.2712L31.4825 27.6098C31.5511 27.6454 31.6308 27.6531 31.705 27.6315C31.7792 27.6098 31.8422 27.5603 31.8808 27.4934C31.9195 27.4264 31.9308 27.3472 31.9125 27.2721C31.8942 27.197 31.8476 27.1318 31.7825 27.0902L29.4641 25.7516C29.43 25.7316 29.3922 25.7185 29.353 25.7132C29.3138 25.7078 29.2739 25.7103 29.2357 25.7204C29.1974 25.7305 29.1616 25.7481 29.1301 25.7721C29.0987 25.7961 29.0724 25.8261 29.0526 25.8604C29.0328 25.8947 29.02 25.9325 29.0149 25.9717C29.0098 26.011 29.0125 26.0508 29.0229 26.089C29.0332 26.1272 29.051 26.1629 29.0753 26.1942C29.0995 26.2255 29.1297 26.2516 29.1641 26.2712ZM33.2 21.2H30.5228C30.4432 21.2 30.3669 21.2316 30.3107 21.2879C30.2544 21.3441 30.2228 21.4204 30.2228 21.5C30.2228 21.5796 30.2544 21.6559 30.3107 21.7121C30.3669 21.7684 30.4432 21.8 30.5228 21.8H33.2C33.2796 21.8 33.3559 21.7684 33.4121 21.7121C33.4684 21.6559 33.5 21.5796 33.5 21.5C33.5 21.4204 33.4684 21.3441 33.4121 21.2879C33.3559 21.2316 33.2796 21.2 33.2 21.2ZM29.054 17.1386C29.0737 17.1728 29.0999 17.2027 29.1312 17.2267C29.1625 17.2507 29.1982 17.2683 29.2363 17.2785C29.2744 17.2887 29.3141 17.2913 29.3532 17.2861C29.3923 17.281 29.43 17.2681 29.4641 17.2484L31.7825 15.9098C31.8169 15.8902 31.8471 15.8641 31.8713 15.8328C31.8956 15.8015 31.9134 15.7658 31.9237 15.7276C31.9341 15.6894 31.9368 15.6496 31.9317 15.6103C31.9266 15.5711 31.9138 15.5333 31.894 15.499C31.8742 15.4647 31.8479 15.4347 31.8165 15.4107C31.785 15.3867 31.7492 15.3691 31.7109 15.359C31.6727 15.3489 31.6328 15.3464 31.5936 15.3518C31.5544 15.3571 31.5166 15.3702 31.4825 15.3902L29.1641 16.7288C29.0952 16.7686 29.0449 16.8341 29.0243 16.911C29.0037 16.9878 29.0142 17.0697 29.054 17.1386ZM27.5 11.1074C27.431 11.0677 27.3492 11.057 27.2723 11.0777C27.1955 11.0983 27.13 11.1486 27.0902 11.2175L25.7516 13.5359C25.7316 13.57 25.7185 13.6078 25.7132 13.647C25.7078 13.6862 25.7103 13.7261 25.7204 13.7643C25.7305 13.8026 25.7481 13.8384 25.7721 13.8699C25.7961 13.9013 25.8261 13.9276 25.8604 13.9474C25.8947 13.9672 25.9325 13.98 25.9717 13.9851C26.011 13.9902 26.0508 13.9875 26.089 13.9771C26.1272 13.9668 26.1629 13.949 26.1942 13.9247C26.2255 13.9005 26.2516 13.8703 26.2712 13.8359L27.6098 11.5175C27.6295 11.4834 27.6424 11.4457 27.6475 11.4066C27.6527 11.3675 27.6501 11.3278 27.6399 11.2897C27.6297 11.2516 27.6121 11.2159 27.5881 11.1846C27.5641 11.1533 27.5342 11.1271 27.5 11.1074Z" fill="url(#paint0_linear_11048_10469)"/>
</g>
<defs>
<filter id="filter0_ii_11048_10469" x="0.805542" y="-1.69434" width="41.3889" height="45.1387" filterUnits="userSpaceOnUse" color-interpolation-filters="sRGB">
<feFlood flood-opacity="0" result="BackgroundImageFix"/>
<feBlend mode="normal" in="SourceGraphic" in2="BackgroundImageFix" result="shape"/>
<feColorMatrix in="SourceAlpha" type="matrix" values="0 0 0 0 0 0 0 0 0 0 0 0 0 0 0 0 0 0 127 0" result="hardAlpha"/>
<feOffset dy="-2.5"/>
<feGaussianBlur stdDeviation="2.08333"/>
<feComposite in2="hardAlpha" operator="arithmetic" k2="-1" k3="1"/>
<feColorMatrix type="matrix" values="0 0 0 0 0.403797 0 0 0 0 0.377879 0 0 0 0 0.70963 0 0 0 0.2 0"/>
<feBlend mode="normal" in2="shape" result="effect1_innerShadow_11048_10469"/>
<feColorMatrix in="SourceAlpha" type="matrix" values="0 0 0 0 0 0 0 0 0 0 0 0 0 0 0 0 0 0 127 0" result="hardAlpha"/>
<feOffset dy="1.25"/>
<feGaussianBlur stdDeviation="0.833333"/>
<feComposite in2="hardAlpha" operator="arithmetic" k2="-1" k3="1"/>
<feColorMatrix type="matrix" values="0 0 0 0 1 0 0 0 0 1 0 0 0 0 1 0 0 0 0.4 0"/>
<feBlend mode="normal" in2="effect1_innerShadow_11048_10469" result="effect2_innerShadow_11048_10469"/>
</filter>
<linearGradient id="paint0_linear_11048_10469" x1="9.5" y1="21.5" x2="33.5" y2="21.5" gradientUnits="userSpaceOnUse">
<stop stop-color="#D62828"/>
<stop offset="1" stop-color="#003F91"/>
</linearGradient>
</defs>
</svg>
