<svg width="131" height="130" viewBox="0 0 131 130" fill="none" xmlns="http://www.w3.org/2000/svg">
<path d="M55.082 80.8056L42.3334 93.5568C41.5894 94.3007 40.6144 94.6714 39.6394 94.6714C38.6644 94.6714 37.6894 94.3007 36.9455 93.5568C35.4601 92.0689 35.4601 89.6568 36.9455 88.1689L49.6941 75.4177C51.182 73.9324 53.5941 73.9324 55.082 75.4177V75.4203C56.5674 76.9082 56.5699 79.3177 55.082 80.8056Z" fill="#DFE7F4"/>
<path d="M55.082 80.8058L42.3334 93.5569C41.5894 94.3009 40.6144 94.6716 39.6394 94.6716C38.6644 94.6716 37.6894 94.3009 36.9455 93.5569L55.082 75.4204C56.5674 76.9083 56.5699 79.3179 55.082 80.8058Z" fill="#C7CFE1"/>
<path d="M126.691 47.3357C126.691 71.335 107.166 90.8629 83.1641 90.8629C74.3256 90.8629 65.8121 88.2248 58.5478 83.2356C56.3287 81.7121 54.2721 80.0033 52.3855 78.1168C50.493 76.2224 48.7787 74.1579 47.2642 71.9494C42.275 64.6877 39.6369 56.1742 39.6369 47.3357C39.6369 23.334 59.1648 3.80859 83.1641 3.80859C95.1662 3.80859 106.049 8.69121 113.927 16.575C121.811 24.4563 126.691 35.3361 126.691 47.3357Z" fill="#7ED8F6"/>
<path d="M126.691 47.3357C126.691 71.3349 107.166 90.8628 83.164 90.8628C74.3255 90.8628 65.8121 88.2248 58.5478 83.2355C56.3287 81.7121 54.272 80.0033 52.3855 78.1167L113.927 16.575C121.811 24.4562 126.691 35.3361 126.691 47.3357Z" fill="#6AA9FF"/>
<path d="M51.0652 47.3382C51.0652 49.4415 52.7704 51.1468 54.8738 51.1468C56.9771 51.1468 58.6824 49.4415 58.6824 47.3382C58.6824 33.8375 69.6659 22.854 83.1666 22.854C85.2699 22.854 86.9752 21.1488 86.9752 19.0454C86.9752 16.9421 85.2699 15.2368 83.1666 15.2368C65.4657 15.2368 51.0652 29.6374 51.0652 47.3382Z" fill="#F0F7FF"/>
<path d="M116.621 13.8811C108.052 5.30918 96.2174 0 83.1666 0C57.0625 0 35.8283 21.2342 35.8283 47.3332C35.8283 56.9486 38.6974 66.2061 44.1234 74.1025C45.7814 76.5172 47.6426 78.7592 49.6941 80.8082C51.7457 82.8623 53.9826 84.7184 56.3947 86.3764C64.2937 91.8023 73.5512 94.6715 83.1666 94.6715C109.266 94.6715 130.5 73.4373 130.5 47.3332C130.5 34.285 125.191 22.4529 116.621 13.8811ZM83.1666 87.0543C75.0975 87.0543 67.333 84.6498 60.706 80.0973C58.6913 78.7148 56.8086 77.1492 55.082 75.4203C53.3511 73.6931 51.7845 71.8086 50.4025 69.7912C45.85 63.1668 43.4455 55.4023 43.4455 47.3332C43.4455 25.4338 61.2646 7.61719 83.1666 7.61719C94.1176 7.61719 104.048 12.0732 111.236 19.2664C118.429 26.457 122.883 36.3873 122.883 47.3332C122.883 69.2352 105.066 87.0543 83.1666 87.0543Z" fill="#334973"/>
<path d="M130.5 47.3333C130.5 73.4374 109.266 94.6715 83.1666 94.6715C73.5511 94.6715 64.2937 91.8024 56.3947 86.3764C53.9826 84.7184 51.7457 82.8624 49.6941 80.8083L55.082 75.4204C56.8035 77.1444 58.6798 78.7059 60.706 80.0973C67.333 84.6498 75.0974 87.0543 83.1666 87.0543C105.066 87.0543 122.883 69.2352 122.883 47.3333C122.883 36.3874 118.429 26.4571 111.236 19.2665L116.621 13.8811C125.191 22.453 130.5 34.285 130.5 47.3333Z" fill="#1F3259"/>
<path d="M47.7162 98.9397L17.773 128.885C16.2844 130.374 13.8717 130.37 12.3877 128.885L7.00231 123.5L1.61442 118.112C0.132111 116.63 0.125763 114.216 1.61442 112.727L31.5601 82.7811C32.2736 82.0677 33.241 81.6665 34.2515 81.6665C35.2621 81.6665 36.232 82.0677 36.9455 82.7811L42.3334 88.169L47.7162 93.5544C49.2041 95.0423 49.2041 97.4544 47.7162 98.9397Z" fill="#334973"/>
<path d="M47.7162 98.9397L17.773 128.885C16.2844 130.374 13.8718 130.369 12.3877 128.885L7.00232 123.5L42.3334 88.1689L47.7162 93.5543C49.2041 95.0422 49.2041 97.4543 47.7162 98.9397Z" fill="#1F3259"/>
</svg>
