<svg width="131" height="130" viewBox="0 0 131 130" fill="none" xmlns="http://www.w3.org/2000/svg">
<g clip-path="url(#clip0_13059_7133)">
<path d="M39.5 119.006C47.5742 110.932 47.2187 97.6273 38.459 90.0101C30.9941 83.5355 19.6953 83.6116 12.3066 90.2132C8.06638 93.9964 5.88278 99.1253 5.70505 104.33C5.5781 108.494 4.38474 112.532 2.53122 116.239C0.0429416 121.241 -0.261746 125.862 2.17575 128.299C4.61325 130.737 9.23435 130.432 14.2363 127.944C17.9687 126.09 22.0312 124.922 26.1953 124.77C31.0449 124.618 35.8183 122.713 39.5 119.006Z" fill="url(#paint0_linear_13059_7133)"/>
<path d="M39.5 119.006C47.5742 110.932 47.2187 97.6273 38.459 90.0101C30.9941 83.5355 19.6953 83.6116 12.3066 90.2132C8.06638 93.9964 5.88278 99.1253 5.70505 104.33C5.5781 108.494 4.38474 112.532 2.53122 116.239C0.0429416 121.241 -0.261746 125.862 2.17575 128.299C4.61325 130.737 9.23435 130.432 14.2363 127.944C17.9687 126.09 22.0312 124.922 26.1953 124.77C31.0449 124.618 35.8183 122.713 39.5 119.006Z" fill="url(#paint1_linear_13059_7133)"/>
<path d="M39.5 119.006C47.5742 110.932 47.2187 97.6273 38.459 90.0101C30.9941 83.5355 19.6953 83.6116 12.3066 90.2132C8.06638 93.9964 5.88278 99.1253 5.70505 104.33C5.5781 108.494 4.38474 112.532 2.53122 116.239C0.0429416 121.241 -0.261746 125.862 2.17575 128.299C4.61325 130.737 9.23435 130.432 14.2363 127.944C17.9687 126.09 22.0312 124.922 26.1953 124.77C31.0449 124.618 35.8183 122.713 39.5 119.006Z" fill="url(#paint2_linear_13059_7133)"/>
<path d="M34.6757 112.379C39.4492 107.606 39.246 99.7599 34.0663 95.2658C29.6484 91.4318 22.9706 91.4826 18.6289 95.3927C16.1406 97.6271 14.8203 100.674 14.7187 103.721C14.6425 106.184 13.9316 108.57 12.8398 110.754C11.3671 113.725 11.1894 116.442 12.6367 117.889C14.0839 119.336 16.8007 119.133 19.7714 117.686C21.9804 116.594 24.3671 115.908 26.83 115.807C29.6738 115.68 32.4921 114.537 34.6757 112.379Z" fill="url(#paint3_linear_13059_7133)"/>
<path d="M58.9746 39.8633H10.7324C6.06055 39.8633 3.72461 45.5254 7.02539 48.8262L30.7148 72.5156L58.9746 39.8633Z" fill="url(#paint4_linear_13059_7133)"/>
<path d="M58.9746 39.8633H10.7324C6.06055 39.8633 3.72461 45.5254 7.02539 48.8262L30.7148 72.5156L58.9746 39.8633Z" fill="url(#paint5_linear_13059_7133)"/>
<path d="M90.6367 71.5254V119.742C90.6367 124.414 84.9746 126.75 81.6738 123.449L57.9844 99.7852L90.6367 71.5254Z" fill="url(#paint6_linear_13059_7133)"/>
<path d="M90.6367 71.5254V119.742C90.6367 124.414 84.9746 126.75 81.6738 123.449L57.9844 99.7852L90.6367 71.5254Z" fill="url(#paint7_linear_13059_7133)"/>
<path d="M90.6367 71.5254V119.742C90.6367 124.414 84.9746 126.75 81.6738 123.449L57.9844 99.7852L90.6367 71.5254Z" fill="url(#paint8_linear_13059_7133)"/>
<path d="M90.6367 71.5254V119.742C90.6367 124.414 84.9746 126.75 81.6738 123.449L57.9844 99.7852L90.6367 71.5254Z" fill="url(#paint9_linear_13059_7133)"/>
<path d="M40.7949 117.076L13.4238 89.7051C12.5351 88.8164 12.9414 87.3437 14.1347 86.9883L28.8359 82.8242L47.7011 101.689L43.5371 116.391C43.1816 117.584 41.6836 117.965 40.7949 117.076Z" fill="url(#paint10_linear_13059_7133)"/>
<path d="M40.7949 117.076L13.4238 89.7051C12.5351 88.8164 12.9414 87.3437 14.1347 86.9883L28.8359 82.8242L47.7011 101.689L43.5371 116.391C43.1816 117.584 41.6836 117.965 40.7949 117.076Z" fill="url(#paint11_linear_13059_7133)"/>
<path d="M40.7949 117.076L13.4238 89.7051C12.5351 88.8164 12.9414 87.3437 14.1347 86.9883L28.8359 82.8242L47.7011 101.689L43.5371 116.391C43.1816 117.584 41.6836 117.965 40.7949 117.076Z" fill="url(#paint12_linear_13059_7133)"/>
<path d="M40.7949 117.076L13.4238 89.7051C12.5351 88.8164 12.9414 87.3437 14.1347 86.9883L28.8359 82.8242L47.7011 101.689L43.5371 116.391C43.1816 117.584 41.6836 117.965 40.7949 117.076Z" fill="url(#paint13_linear_13059_7133)"/>
<path d="M37.0117 113.293L17.207 93.4883L32.2891 86.2773L44.2227 98.2109L37.0117 113.293Z" fill="url(#paint14_linear_13059_7133)"/>
<path d="M30.3086 106.59L23.9102 100.191L36.3262 90.3145L40.1855 94.1738L30.3086 106.59Z" fill="url(#paint15_linear_13059_7133)"/>
<path d="M31.8828 73.9629L56.5625 98.6426C57.6543 99.7344 57.6543 101.537 56.5625 102.629L51.5605 107.631C50.4688 108.723 48.666 108.723 47.5742 107.631L22.8945 82.9512C21.8027 81.8594 21.8027 80.0566 22.8945 78.9648L27.8965 73.9629C28.9883 72.8457 30.791 72.8457 31.8828 73.9629Z" fill="url(#paint16_linear_13059_7133)"/>
<path d="M31.8828 73.9629L56.5625 98.6426C57.6543 99.7344 57.6543 101.537 56.5625 102.629L51.5605 107.631C50.4688 108.723 48.666 108.723 47.5742 107.631L22.8945 82.9512C21.8027 81.8594 21.8027 80.0566 22.8945 78.9648L27.8965 73.9629C28.9883 72.8457 30.791 72.8457 31.8828 73.9629Z" fill="url(#paint17_linear_13059_7133)"/>
<path d="M31.8828 73.9629L56.5625 98.6426C57.6543 99.7344 57.6543 101.537 56.5625 102.629L51.5605 107.631C50.4688 108.723 48.666 108.723 47.5742 107.631L22.8945 82.9512C21.8027 81.8594 21.8027 80.0566 22.8945 78.9648L27.8965 73.9629C28.9883 72.8457 30.791 72.8457 31.8828 73.9629Z" fill="url(#paint18_linear_13059_7133)"/>
<path d="M51.7383 107.428L56.3594 102.807C57.5527 101.613 57.5527 99.6582 56.3594 98.4648L43.1055 85.2109L35.1836 92.1172V95.2656L47.3457 107.428C48.5898 108.621 50.5449 108.621 51.7383 107.428Z" fill="url(#paint19_linear_13059_7133)"/>
<path d="M56.3594 98.4395L45.1113 87.1914L36.123 96.1797L47.3711 107.428C48.5645 108.621 50.5195 108.621 51.7129 107.428L56.334 102.807C57.5781 101.588 57.5781 99.6328 56.3594 98.4395Z" fill="url(#paint20_linear_13059_7133)"/>
<path d="M103.053 68.1484C100.996 70.2051 98.8633 72.1094 96.6797 73.8867L60.2187 103.137C58.7461 104.305 56.6387 104.203 55.293 102.857L27.6172 75.1816C26.2969 73.8613 26.1699 71.7285 27.3379 70.2559L56.6133 33.7949C65.6269 22.623 78.4238 13.2031 94.3183 6.72852L116.789 13.7109L123.771 36.1816C118.566 48.9531 111.457 59.7188 103.053 68.1484Z" fill="url(#paint21_linear_13059_7133)"/>
<path d="M123.771 36.1562L116.789 13.7109L105.693 10.2578L34.1934 81.7578L55.293 102.857C56.6133 104.178 58.7461 104.305 60.2188 103.137L96.6797 73.8613C98.8887 72.084 101.021 70.1797 103.053 68.123C111.457 59.7188 118.566 48.9531 123.771 36.1562Z" fill="url(#paint22_linear_13059_7133)"/>
<path d="M123.771 36.1562L116.789 13.7109L105.693 10.2578L34.1934 81.7578L55.293 102.857C56.6133 104.178 58.7461 104.305 60.2188 103.137L96.6797 73.8613C98.8887 72.084 101.021 70.1797 103.053 68.123C111.457 59.7188 118.566 48.9531 123.771 36.1562Z" fill="url(#paint23_linear_13059_7133)"/>
<path d="M67.9375 43.5957V96.9414L96.6543 73.8867C98.8633 72.1094 100.996 70.2051 103.027 68.1484C104.145 67.0312 105.236 65.8633 106.328 64.6445V43.5449L67.9375 43.5957Z" fill="url(#paint24_linear_13059_7133)"/>
<path d="M123.771 36.1817C119.531 31.3321 114.732 26.2032 109.527 20.9727C104.322 15.7422 99.168 10.9688 94.3184 6.72857C100.895 4.06256 108.004 1.87896 115.596 0.279353C119.963 -0.63471 124.076 0.837947 126.869 3.63092C129.662 6.42388 131.135 10.5372 130.221 14.9044C128.621 22.4962 126.438 29.6055 123.771 36.1817Z" fill="url(#paint25_linear_13059_7133)"/>
<path d="M123.771 36.1818C119.531 31.3322 114.732 26.2033 109.527 20.9729C107.039 18.4846 104.576 16.0979 102.139 13.8127L115.697 0.254102C120.014 -0.609179 124.102 0.863478 126.869 3.63106C129.662 6.42402 131.135 10.5373 130.221 14.9045C128.621 22.4963 126.438 29.6057 123.771 36.1818Z" fill="url(#paint26_linear_13059_7133)"/>
<path d="M41.8613 52.2285L27.3633 70.3066C26.1953 71.7793 26.2969 73.8867 27.6426 75.207L55.3183 102.883C56.6386 104.203 58.7715 104.33 60.2187 103.162L78.2969 88.6641L41.8613 52.2285Z" fill="url(#paint27_linear_13059_7133)"/>
<path d="M87.1328 62.5625C97.7341 62.5625 106.328 53.9685 106.328 43.3672C106.328 32.7659 97.7341 24.1719 87.1328 24.1719C76.5315 24.1719 67.9375 32.7659 67.9375 43.3672C67.9375 53.9685 76.5315 62.5625 87.1328 62.5625Z" fill="url(#paint28_linear_13059_7133)"/>
<path d="M87.1328 60.4551C96.5702 60.4551 104.221 52.8046 104.221 43.3672C104.221 33.9298 96.5702 26.2793 87.1328 26.2793C77.6954 26.2793 70.0449 33.9298 70.0449 43.3672C70.0449 52.8046 77.6954 60.4551 87.1328 60.4551Z" fill="url(#paint29_linear_13059_7133)"/>
<path d="M73.5742 29.7832C66.084 37.2734 66.084 49.4355 73.5742 56.9512C81.0645 64.4668 93.2266 64.4414 100.742 56.9512C102.088 55.6055 103.205 54.082 104.068 52.4824L78.0176 26.457C76.418 27.3203 74.9199 28.4121 73.5742 29.7832Z" fill="url(#paint30_linear_13059_7133)"/>
<path d="M100.717 29.7832C99.168 28.2344 97.416 27.0156 95.5625 26.1016L69.8672 51.7715C70.7812 53.625 72 55.3769 73.5488 56.9258C81.0391 64.416 93.2012 64.416 100.717 56.9258C108.232 49.4355 108.232 37.2734 100.717 29.7832Z" fill="url(#paint31_linear_13059_7133)"/>
<path d="M87.1328 57.8652C95.1399 57.8652 101.631 51.3742 101.631 43.3672C101.631 35.3601 95.1399 28.8691 87.1328 28.8691C79.1258 28.8691 72.6348 35.3601 72.6348 43.3672C72.6348 51.3742 79.1258 57.8652 87.1328 57.8652Z" fill="url(#paint32_linear_13059_7133)"/>
<path d="M87.1328 57.8652C95.1399 57.8652 101.631 51.3742 101.631 43.3672C101.631 35.3601 95.1399 28.8691 87.1328 28.8691C79.1258 28.8691 72.6348 35.3601 72.6348 43.3672C72.6348 51.3742 79.1258 57.8652 87.1328 57.8652Z" fill="url(#paint33_linear_13059_7133)"/>
<path d="M87.1328 57.8652C95.1399 57.8652 101.631 51.3742 101.631 43.3672C101.631 35.3601 95.1399 28.8691 87.1328 28.8691C79.1258 28.8691 72.6348 35.3601 72.6348 43.3672C72.6348 51.3742 79.1258 57.8652 87.1328 57.8652Z" fill="url(#paint34_linear_13059_7133)"/>
<path d="M87.1328 57.8652C95.1399 57.8652 101.631 51.3742 101.631 43.3672C101.631 35.3601 95.1399 28.8691 87.1328 28.8691C79.1258 28.8691 72.6348 35.3601 72.6348 43.3672C72.6348 51.3742 79.1258 57.8652 87.1328 57.8652Z" fill="url(#paint35_linear_13059_7133)"/>
<path d="M58.4922 57.4844L73.0156 72.0078C73.8535 72.8457 73.8535 74.1914 73.0156 75.0039L62.3008 85.7188C61.4629 86.5566 60.1172 86.5566 59.3047 85.7188L44.7812 71.1953C43.9434 70.3574 43.9434 69.0117 44.7812 68.1992L55.4961 57.4844C56.3086 56.6465 57.6543 56.6465 58.4922 57.4844Z" fill="url(#paint36_linear_13059_7133)"/>
<path d="M58.4922 57.4844L73.0156 72.0078C73.8535 72.8457 73.8535 74.1914 73.0156 75.0039L62.3008 85.7188C61.4629 86.5566 60.1172 86.5566 59.3047 85.7188L44.7812 71.1953C43.9434 70.3574 43.9434 69.0117 44.7812 68.1992L55.4961 57.4844C56.3086 56.6465 57.6543 56.6465 58.4922 57.4844Z" fill="url(#paint37_linear_13059_7133)"/>
<path d="M58.4922 57.4844L73.0156 72.0078C73.8535 72.8457 73.8535 74.1914 73.0156 75.0039L62.3008 85.7188C61.4629 86.5566 60.1172 86.5566 59.3047 85.7188L44.7812 71.1953C43.9434 70.3574 43.9434 69.0117 44.7812 68.1992L55.4961 57.4844C56.3086 56.6465 57.6543 56.6465 58.4922 57.4844Z" fill="url(#paint38_linear_13059_7133)"/>
<path d="M65.9063 98.5664V65.3301L40.1602 87.75L55.2676 102.857C56.5879 104.178 58.7207 104.305 60.1934 103.137L65.9063 98.5664Z" fill="url(#paint39_linear_13059_7133)"/>
<path d="M61.4121 72.4906C62.7578 70.6879 64.0527 68.8344 65.2461 66.9301C65.9316 65.8383 66.0586 65.0765 65.7539 64.7465C65.4238 64.4164 64.6621 64.5433 63.5703 65.2543C61.666 66.473 59.8125 67.7426 58.0098 69.0883C53.668 72.3383 49.707 75.8929 46.4063 79.4476L35.6914 91.0004C35.2598 91.4574 35.0566 91.9398 35.209 92.0922L38.4082 95.2914C38.5605 95.4437 39.043 95.2406 39.5 94.809L51.0527 84.0941C51.7383 83.4594 52.4492 82.7738 53.1348 82.0883C55.9785 79.2191 58.7969 75.9691 61.4121 72.4906Z" fill="url(#paint40_linear_13059_7133)"/>
<path d="M43.9941 82.0625L35.6914 91C35.2598 91.457 35.0566 91.9395 35.209 92.0918L38.4082 95.291C38.5605 95.4434 39.043 95.2402 39.5 94.8086L48.4375 86.5059L43.9941 82.0625Z" fill="url(#paint41_linear_13059_7133)"/>
</g>
<defs>
<linearGradient id="paint0_linear_13059_7133" x1="15.6401" y1="91.2955" x2="27.7845" y2="128.376" gradientUnits="userSpaceOnUse">
<stop stop-color="#FEF48B"/>
<stop offset="0.165" stop-color="#FDF286"/>
<stop offset="0.335" stop-color="#FDEE7A"/>
<stop offset="0.509" stop-color="#FCE765"/>
<stop offset="0.684" stop-color="#FCDE48"/>
<stop offset="0.859" stop-color="#FBD123"/>
<stop offset="1" stop-color="#FAC600"/>
</linearGradient>
<linearGradient id="paint1_linear_13059_7133" x1="18.4314" y1="112.075" x2="27.3886" y2="103.118" gradientUnits="userSpaceOnUse">
<stop stop-color="#FE9738" stop-opacity="0"/>
<stop offset="0.121" stop-color="#FE9738" stop-opacity="0.016"/>
<stop offset="0.246" stop-color="#FE9738" stop-opacity="0.065"/>
<stop offset="0.373" stop-color="#FE9738" stop-opacity="0.147"/>
<stop offset="0.502" stop-color="#FE9738" stop-opacity="0.262"/>
<stop offset="0.632" stop-color="#FE9738" stop-opacity="0.41"/>
<stop offset="0.762" stop-color="#FE9738" stop-opacity="0.59"/>
<stop offset="0.892" stop-color="#FE9738" stop-opacity="0.8"/>
<stop offset="1" stop-color="#FE9738"/>
</linearGradient>
<linearGradient id="paint2_linear_13059_7133" x1="23.4129" y1="116.119" x2="25.5989" y2="126.077" gradientUnits="userSpaceOnUse">
<stop stop-color="#FE9738" stop-opacity="0"/>
<stop offset="0.121" stop-color="#FE9738" stop-opacity="0.016"/>
<stop offset="0.246" stop-color="#FE9738" stop-opacity="0.065"/>
<stop offset="0.373" stop-color="#FE9738" stop-opacity="0.147"/>
<stop offset="0.502" stop-color="#FE9738" stop-opacity="0.262"/>
<stop offset="0.632" stop-color="#FE9738" stop-opacity="0.41"/>
<stop offset="0.762" stop-color="#FE9738" stop-opacity="0.59"/>
<stop offset="0.892" stop-color="#FE9738" stop-opacity="0.8"/>
<stop offset="1" stop-color="#FE9738"/>
</linearGradient>
<linearGradient id="paint3_linear_13059_7133" x1="19.7522" y1="88.6166" x2="28.2532" y2="122.864" gradientUnits="userSpaceOnUse">
<stop stop-color="#C41926" stop-opacity="0"/>
<stop offset="0.138" stop-color="#C41926" stop-opacity="0.021"/>
<stop offset="0.281" stop-color="#C41926" stop-opacity="0.085"/>
<stop offset="0.426" stop-color="#C41926" stop-opacity="0.191"/>
<stop offset="0.573" stop-color="#C41926" stop-opacity="0.339"/>
<stop offset="0.722" stop-color="#C41926" stop-opacity="0.53"/>
<stop offset="0.869" stop-color="#C41926" stop-opacity="0.761"/>
<stop offset="1" stop-color="#C41926"/>
</linearGradient>
<linearGradient id="paint4_linear_13059_7133" x1="33.7519" y1="35.8781" x2="25.5545" y2="69.7108" gradientUnits="userSpaceOnUse">
<stop stop-color="#60B7FF"/>
<stop offset="0.189" stop-color="#5EB2FC"/>
<stop offset="0.385" stop-color="#58A6F6"/>
<stop offset="0.585" stop-color="#4F91EB"/>
<stop offset="0.786" stop-color="#4274DD"/>
<stop offset="0.987" stop-color="#324FCA"/>
<stop offset="1" stop-color="#314DC9"/>
</linearGradient>
<linearGradient id="paint5_linear_13059_7133" x1="20.6574" y1="55.1735" x2="15.6853" y2="60.1457" gradientUnits="userSpaceOnUse">
<stop stop-color="#192A7D" stop-opacity="0"/>
<stop offset="0.174" stop-color="#192A7D" stop-opacity="0.033"/>
<stop offset="0.354" stop-color="#192A7D" stop-opacity="0.133"/>
<stop offset="0.537" stop-color="#192A7D" stop-opacity="0.299"/>
<stop offset="0.722" stop-color="#192A7D" stop-opacity="0.531"/>
<stop offset="0.907" stop-color="#192A7D" stop-opacity="0.827"/>
<stop offset="1" stop-color="#192A7D"/>
</linearGradient>
<linearGradient id="paint6_linear_13059_7133" x1="94.6127" y1="96.7127" x2="60.78" y2="104.91" gradientUnits="userSpaceOnUse">
<stop stop-color="#60B7FF"/>
<stop offset="0.189" stop-color="#5EB2FC"/>
<stop offset="0.385" stop-color="#58A6F6"/>
<stop offset="0.585" stop-color="#4F91EB"/>
<stop offset="0.786" stop-color="#4274DD"/>
<stop offset="0.987" stop-color="#324FCA"/>
<stop offset="1" stop-color="#314DC9"/>
</linearGradient>
<linearGradient id="paint7_linear_13059_7133" x1="83.2759" y1="97.6366" x2="74.9295" y2="86.5081" gradientUnits="userSpaceOnUse">
<stop stop-color="#192A7D" stop-opacity="0"/>
<stop offset="0.174" stop-color="#192A7D" stop-opacity="0.033"/>
<stop offset="0.354" stop-color="#192A7D" stop-opacity="0.133"/>
<stop offset="0.537" stop-color="#192A7D" stop-opacity="0.299"/>
<stop offset="0.722" stop-color="#192A7D" stop-opacity="0.531"/>
<stop offset="0.907" stop-color="#192A7D" stop-opacity="0.827"/>
<stop offset="1" stop-color="#192A7D"/>
</linearGradient>
<linearGradient id="paint8_linear_13059_7133" x1="81.7581" y1="97.5788" x2="95.47" y2="99.1686" gradientUnits="userSpaceOnUse">
<stop stop-color="#192A7D" stop-opacity="0"/>
<stop offset="0.174" stop-color="#192A7D" stop-opacity="0.033"/>
<stop offset="0.354" stop-color="#192A7D" stop-opacity="0.133"/>
<stop offset="0.537" stop-color="#192A7D" stop-opacity="0.299"/>
<stop offset="0.722" stop-color="#192A7D" stop-opacity="0.531"/>
<stop offset="0.907" stop-color="#192A7D" stop-opacity="0.827"/>
<stop offset="1" stop-color="#192A7D"/>
</linearGradient>
<linearGradient id="paint9_linear_13059_7133" x1="75.3274" y1="109.843" x2="70.3552" y2="114.816" gradientUnits="userSpaceOnUse">
<stop stop-color="#192A7D" stop-opacity="0"/>
<stop offset="0.174" stop-color="#192A7D" stop-opacity="0.033"/>
<stop offset="0.354" stop-color="#192A7D" stop-opacity="0.133"/>
<stop offset="0.537" stop-color="#192A7D" stop-opacity="0.299"/>
<stop offset="0.722" stop-color="#192A7D" stop-opacity="0.531"/>
<stop offset="0.907" stop-color="#192A7D" stop-opacity="0.827"/>
<stop offset="1" stop-color="#192A7D"/>
</linearGradient>
<linearGradient id="paint10_linear_13059_7133" x1="21.4627" y1="86.6264" x2="41.0159" y2="106.18" gradientUnits="userSpaceOnUse">
<stop stop-color="#7B7179"/>
<stop offset="0.265" stop-color="#766D74"/>
<stop offset="0.54" stop-color="#6A6369"/>
<stop offset="0.818" stop-color="#555255"/>
<stop offset="1" stop-color="#444444"/>
</linearGradient>
<linearGradient id="paint11_linear_13059_7133" x1="30.2909" y1="100.21" x2="36.4511" y2="94.0498" gradientUnits="userSpaceOnUse">
<stop stop-color="#444444" stop-opacity="0"/>
<stop offset="0.39" stop-color="#3D3D3D" stop-opacity="0.16"/>
<stop offset="0.793" stop-color="#292929" stop-opacity="0.637"/>
<stop offset="1" stop-color="#1A1A1A"/>
</linearGradient>
<linearGradient id="paint12_linear_13059_7133" x1="34.7931" y1="100.027" x2="47.9188" y2="105.575" gradientUnits="userSpaceOnUse">
<stop stop-color="#444444" stop-opacity="0"/>
<stop offset="0.39" stop-color="#3D3D3D" stop-opacity="0.16"/>
<stop offset="0.793" stop-color="#292929" stop-opacity="0.637"/>
<stop offset="1" stop-color="#1A1A1A"/>
</linearGradient>
<linearGradient id="paint13_linear_13059_7133" x1="31.3734" y1="99.1275" x2="26.5693" y2="103.932" gradientUnits="userSpaceOnUse">
<stop stop-color="#444444" stop-opacity="0"/>
<stop offset="0.39" stop-color="#3D3D3D" stop-opacity="0.16"/>
<stop offset="0.793" stop-color="#292929" stop-opacity="0.637"/>
<stop offset="1" stop-color="#1A1A1A"/>
</linearGradient>
<linearGradient id="paint14_linear_13059_7133" x1="39.3263" y1="85.7041" x2="23.9005" y2="108.031" gradientUnits="userSpaceOnUse">
<stop stop-color="#444444" stop-opacity="0"/>
<stop offset="0.39" stop-color="#3D3D3D" stop-opacity="0.16"/>
<stop offset="0.793" stop-color="#292929" stop-opacity="0.637"/>
<stop offset="1" stop-color="#1A1A1A"/>
</linearGradient>
<linearGradient id="paint15_linear_13059_7133" x1="38.8221" y1="87.367" x2="25.5519" y2="106.574" gradientUnits="userSpaceOnUse">
<stop stop-color="#444444" stop-opacity="0"/>
<stop offset="0.39" stop-color="#3D3D3D" stop-opacity="0.16"/>
<stop offset="0.793" stop-color="#292929" stop-opacity="0.637"/>
<stop offset="1" stop-color="#1A1A1A"/>
</linearGradient>
<linearGradient id="paint16_linear_13059_7133" x1="44.6699" y1="85.831" x2="34.4717" y2="96.0292" gradientUnits="userSpaceOnUse">
<stop stop-color="#FE646F"/>
<stop offset="0.236" stop-color="#FC5F6B"/>
<stop offset="0.48" stop-color="#F7535F"/>
<stop offset="0.729" stop-color="#EF3E4B"/>
<stop offset="0.979" stop-color="#E5212F"/>
<stop offset="1" stop-color="#E41F2D"/>
</linearGradient>
<linearGradient id="paint17_linear_13059_7133" x1="37.46" y1="93.041" x2="42.2335" y2="88.2674" gradientUnits="userSpaceOnUse">
<stop stop-color="#C41926" stop-opacity="0"/>
<stop offset="0.186" stop-color="#C01926" stop-opacity="0.038"/>
<stop offset="0.38" stop-color="#B61C26" stop-opacity="0.152"/>
<stop offset="0.576" stop-color="#A62126" stop-opacity="0.343"/>
<stop offset="0.775" stop-color="#8F2826" stop-opacity="0.609"/>
<stop offset="0.973" stop-color="#713126" stop-opacity="0.949"/>
<stop offset="1" stop-color="#6D3326"/>
</linearGradient>
<linearGradient id="paint18_linear_13059_7133" x1="38.3542" y1="92.1467" x2="35.0694" y2="95.4315" gradientUnits="userSpaceOnUse">
<stop stop-color="#C41926" stop-opacity="0"/>
<stop offset="0.186" stop-color="#C01926" stop-opacity="0.038"/>
<stop offset="0.38" stop-color="#B61C26" stop-opacity="0.152"/>
<stop offset="0.576" stop-color="#A62126" stop-opacity="0.343"/>
<stop offset="0.775" stop-color="#8F2826" stop-opacity="0.609"/>
<stop offset="0.973" stop-color="#713126" stop-opacity="0.949"/>
<stop offset="1" stop-color="#6D3326"/>
</linearGradient>
<linearGradient id="paint19_linear_13059_7133" x1="46.3899" y1="98.9273" x2="44.8993" y2="88.6933" gradientUnits="userSpaceOnUse">
<stop stop-color="#C41926" stop-opacity="0"/>
<stop offset="0.186" stop-color="#C01926" stop-opacity="0.038"/>
<stop offset="0.38" stop-color="#B61C26" stop-opacity="0.152"/>
<stop offset="0.576" stop-color="#A62126" stop-opacity="0.343"/>
<stop offset="0.775" stop-color="#8F2826" stop-opacity="0.609"/>
<stop offset="0.973" stop-color="#713126" stop-opacity="0.949"/>
<stop offset="1" stop-color="#6D3326"/>
</linearGradient>
<linearGradient id="paint20_linear_13059_7133" x1="47.0857" y1="98.1578" x2="54.6901" y2="105.762" gradientUnits="userSpaceOnUse">
<stop stop-color="#C41926" stop-opacity="0"/>
<stop offset="0.186" stop-color="#C01926" stop-opacity="0.038"/>
<stop offset="0.38" stop-color="#B61C26" stop-opacity="0.152"/>
<stop offset="0.576" stop-color="#A62126" stop-opacity="0.343"/>
<stop offset="0.775" stop-color="#8F2826" stop-opacity="0.609"/>
<stop offset="0.973" stop-color="#713126" stop-opacity="0.949"/>
<stop offset="1" stop-color="#6D3326"/>
</linearGradient>
<linearGradient id="paint21_linear_13059_7133" x1="65.5574" y1="37.8173" x2="97.8071" y2="70.067" gradientUnits="userSpaceOnUse">
<stop stop-color="#EAF6FF"/>
<stop offset="0.268" stop-color="#E5F3FC"/>
<stop offset="0.545" stop-color="#D9EAF6"/>
<stop offset="0.826" stop-color="#C4DDEB"/>
<stop offset="1" stop-color="#B4D2E2"/>
</linearGradient>
<linearGradient id="paint22_linear_13059_7133" x1="82.3727" y1="57.0765" x2="96.2336" y2="75.8557" gradientUnits="userSpaceOnUse">
<stop stop-color="#8D9CA8" stop-opacity="0"/>
<stop offset="0.149" stop-color="#8D9CA8" stop-opacity="0.025"/>
<stop offset="0.304" stop-color="#8D9CA8" stop-opacity="0.099"/>
<stop offset="0.461" stop-color="#8D9CA8" stop-opacity="0.222"/>
<stop offset="0.62" stop-color="#8D9CA8" stop-opacity="0.395"/>
<stop offset="0.781" stop-color="#8D9CA8" stop-opacity="0.618"/>
<stop offset="0.94" stop-color="#8D9CA8" stop-opacity="0.887"/>
<stop offset="1" stop-color="#8D9CA8"/>
</linearGradient>
<linearGradient id="paint23_linear_13059_7133" x1="90.6088" y1="61.2586" x2="105.364" y2="70.6485" gradientUnits="userSpaceOnUse">
<stop stop-color="#8D9CA8" stop-opacity="0"/>
<stop offset="0.149" stop-color="#8D9CA8" stop-opacity="0.025"/>
<stop offset="0.304" stop-color="#8D9CA8" stop-opacity="0.099"/>
<stop offset="0.461" stop-color="#8D9CA8" stop-opacity="0.222"/>
<stop offset="0.62" stop-color="#8D9CA8" stop-opacity="0.395"/>
<stop offset="0.781" stop-color="#8D9CA8" stop-opacity="0.618"/>
<stop offset="0.94" stop-color="#8D9CA8" stop-opacity="0.887"/>
<stop offset="1" stop-color="#8D9CA8"/>
</linearGradient>
<linearGradient id="paint24_linear_13059_7133" x1="85.981" y1="70.771" x2="88.0676" y2="40.6645" gradientUnits="userSpaceOnUse">
<stop stop-color="#8D9CA8" stop-opacity="0"/>
<stop offset="0.149" stop-color="#8D9CA8" stop-opacity="0.025"/>
<stop offset="0.304" stop-color="#8D9CA8" stop-opacity="0.099"/>
<stop offset="0.461" stop-color="#8D9CA8" stop-opacity="0.222"/>
<stop offset="0.62" stop-color="#8D9CA8" stop-opacity="0.395"/>
<stop offset="0.781" stop-color="#8D9CA8" stop-opacity="0.618"/>
<stop offset="0.94" stop-color="#8D9CA8" stop-opacity="0.887"/>
<stop offset="1" stop-color="#8D9CA8"/>
</linearGradient>
<linearGradient id="paint25_linear_13059_7133" x1="109.553" y1="4.14381" x2="125.996" y2="20.5876" gradientUnits="userSpaceOnUse">
<stop stop-color="#FE646F"/>
<stop offset="0.236" stop-color="#FC5F6B"/>
<stop offset="0.48" stop-color="#F7535F"/>
<stop offset="0.729" stop-color="#EF3E4B"/>
<stop offset="0.979" stop-color="#E5212F"/>
<stop offset="1" stop-color="#E41F2D"/>
</linearGradient>
<linearGradient id="paint26_linear_13059_7133" x1="119.805" y1="16.7375" x2="130.436" y2="22.2025" gradientUnits="userSpaceOnUse">
<stop stop-color="#C41926" stop-opacity="0"/>
<stop offset="0.186" stop-color="#C01926" stop-opacity="0.038"/>
<stop offset="0.38" stop-color="#B61C26" stop-opacity="0.152"/>
<stop offset="0.576" stop-color="#A62126" stop-opacity="0.343"/>
<stop offset="0.775" stop-color="#8F2826" stop-opacity="0.609"/>
<stop offset="0.973" stop-color="#713126" stop-opacity="0.949"/>
<stop offset="1" stop-color="#6D3326"/>
</linearGradient>
<linearGradient id="paint27_linear_13059_7133" x1="46.3528" y1="84.1481" x2="41.4344" y2="89.0665" gradientUnits="userSpaceOnUse">
<stop stop-color="#8D9CA8" stop-opacity="0"/>
<stop offset="0.149" stop-color="#8D9CA8" stop-opacity="0.025"/>
<stop offset="0.304" stop-color="#8D9CA8" stop-opacity="0.099"/>
<stop offset="0.461" stop-color="#8D9CA8" stop-opacity="0.222"/>
<stop offset="0.62" stop-color="#8D9CA8" stop-opacity="0.395"/>
<stop offset="0.781" stop-color="#8D9CA8" stop-opacity="0.618"/>
<stop offset="0.94" stop-color="#8D9CA8" stop-opacity="0.887"/>
<stop offset="1" stop-color="#8D9CA8"/>
</linearGradient>
<linearGradient id="paint28_linear_13059_7133" x1="87.1348" y1="22.5343" x2="87.1346" y2="64.306" gradientUnits="userSpaceOnUse">
<stop stop-color="#60B7FF"/>
<stop offset="0.189" stop-color="#5EB2FC"/>
<stop offset="0.385" stop-color="#58A6F6"/>
<stop offset="0.585" stop-color="#4F91EB"/>
<stop offset="0.786" stop-color="#4274DD"/>
<stop offset="0.987" stop-color="#324FCA"/>
<stop offset="1" stop-color="#314DC9"/>
</linearGradient>
<linearGradient id="paint29_linear_13059_7133" x1="87.1346" y1="61.8344" x2="87.1346" y2="20.3268" gradientUnits="userSpaceOnUse">
<stop stop-color="#60B7FF"/>
<stop offset="0.189" stop-color="#5EB2FC"/>
<stop offset="0.385" stop-color="#58A6F6"/>
<stop offset="0.585" stop-color="#4F91EB"/>
<stop offset="0.786" stop-color="#4274DD"/>
<stop offset="0.987" stop-color="#324FCA"/>
<stop offset="1" stop-color="#314DC9"/>
</linearGradient>
<linearGradient id="paint30_linear_13059_7133" x1="84.4149" y1="46.086" x2="67.5052" y2="62.9957" gradientUnits="userSpaceOnUse">
<stop stop-color="#192A7D" stop-opacity="0"/>
<stop offset="0.174" stop-color="#192A7D" stop-opacity="0.033"/>
<stop offset="0.354" stop-color="#192A7D" stop-opacity="0.133"/>
<stop offset="0.537" stop-color="#192A7D" stop-opacity="0.299"/>
<stop offset="0.722" stop-color="#192A7D" stop-opacity="0.531"/>
<stop offset="0.907" stop-color="#192A7D" stop-opacity="0.827"/>
<stop offset="1" stop-color="#192A7D"/>
</linearGradient>
<linearGradient id="paint31_linear_13059_7133" x1="89.2199" y1="46.5174" x2="103.46" y2="68.0386" gradientUnits="userSpaceOnUse">
<stop stop-color="#192A7D" stop-opacity="0"/>
<stop offset="0.174" stop-color="#192A7D" stop-opacity="0.033"/>
<stop offset="0.354" stop-color="#192A7D" stop-opacity="0.133"/>
<stop offset="0.537" stop-color="#192A7D" stop-opacity="0.299"/>
<stop offset="0.722" stop-color="#192A7D" stop-opacity="0.531"/>
<stop offset="0.907" stop-color="#192A7D" stop-opacity="0.827"/>
<stop offset="1" stop-color="#192A7D"/>
</linearGradient>
<linearGradient id="paint32_linear_13059_7133" x1="87.1348" y1="24.9968" x2="87.1346" y2="56.6458" gradientUnits="userSpaceOnUse">
<stop stop-color="#7B7179"/>
<stop offset="0.265" stop-color="#766D74"/>
<stop offset="0.54" stop-color="#6A6369"/>
<stop offset="0.818" stop-color="#555255"/>
<stop offset="1" stop-color="#444444"/>
</linearGradient>
<linearGradient id="paint33_linear_13059_7133" x1="91.9225" y1="48.1543" x2="74.3352" y2="30.567" gradientUnits="userSpaceOnUse">
<stop stop-color="#444444" stop-opacity="0"/>
<stop offset="0.39" stop-color="#3D3D3D" stop-opacity="0.16"/>
<stop offset="0.793" stop-color="#292929" stop-opacity="0.637"/>
<stop offset="1" stop-color="#1A1A1A"/>
</linearGradient>
<linearGradient id="paint34_linear_13059_7133" x1="86.6687" y1="50.4597" x2="88.4572" y2="23.2348" gradientUnits="userSpaceOnUse">
<stop stop-color="#444444" stop-opacity="0"/>
<stop offset="0.39" stop-color="#3D3D3D" stop-opacity="0.16"/>
<stop offset="0.793" stop-color="#292929" stop-opacity="0.637"/>
<stop offset="1" stop-color="#1A1A1A"/>
</linearGradient>
<linearGradient id="paint35_linear_13059_7133" x1="83.7625" y1="46.7384" x2="100.526" y2="29.9745" gradientUnits="userSpaceOnUse">
<stop stop-color="#444444" stop-opacity="0"/>
<stop offset="0.39" stop-color="#3D3D3D" stop-opacity="0.16"/>
<stop offset="0.793" stop-color="#292929" stop-opacity="0.637"/>
<stop offset="1" stop-color="#1A1A1A"/>
</linearGradient>
<linearGradient id="paint36_linear_13059_7133" x1="66.9905" y1="25.5451" x2="56.2011" y2="86.8349" gradientUnits="userSpaceOnUse">
<stop stop-color="#EAF6FF"/>
<stop offset="0.268" stop-color="#E5F3FC"/>
<stop offset="0.545" stop-color="#D9EAF6"/>
<stop offset="0.826" stop-color="#C4DDEB"/>
<stop offset="1" stop-color="#B4D2E2"/>
</linearGradient>
<linearGradient id="paint37_linear_13059_7133" x1="55.0718" y1="75.4291" x2="50.595" y2="79.9059" gradientUnits="userSpaceOnUse">
<stop stop-color="#8D9CA8" stop-opacity="0"/>
<stop offset="0.149" stop-color="#8D9CA8" stop-opacity="0.025"/>
<stop offset="0.304" stop-color="#8D9CA8" stop-opacity="0.099"/>
<stop offset="0.461" stop-color="#8D9CA8" stop-opacity="0.222"/>
<stop offset="0.62" stop-color="#8D9CA8" stop-opacity="0.395"/>
<stop offset="0.781" stop-color="#8D9CA8" stop-opacity="0.618"/>
<stop offset="0.94" stop-color="#8D9CA8" stop-opacity="0.887"/>
<stop offset="1" stop-color="#8D9CA8"/>
</linearGradient>
<linearGradient id="paint38_linear_13059_7133" x1="63.8909" y1="76.6333" x2="69.1902" y2="81.9325" gradientUnits="userSpaceOnUse">
<stop stop-color="#8D9CA8" stop-opacity="0"/>
<stop offset="0.149" stop-color="#8D9CA8" stop-opacity="0.025"/>
<stop offset="0.304" stop-color="#8D9CA8" stop-opacity="0.099"/>
<stop offset="0.461" stop-color="#8D9CA8" stop-opacity="0.222"/>
<stop offset="0.62" stop-color="#8D9CA8" stop-opacity="0.395"/>
<stop offset="0.781" stop-color="#8D9CA8" stop-opacity="0.618"/>
<stop offset="0.94" stop-color="#8D9CA8" stop-opacity="0.887"/>
<stop offset="1" stop-color="#8D9CA8"/>
</linearGradient>
<linearGradient id="paint39_linear_13059_7133" x1="62.9498" y1="86.2189" x2="52.7155" y2="77.0776" gradientUnits="userSpaceOnUse">
<stop stop-color="#8D9CA8" stop-opacity="0"/>
<stop offset="0.149" stop-color="#8D9CA8" stop-opacity="0.025"/>
<stop offset="0.304" stop-color="#8D9CA8" stop-opacity="0.099"/>
<stop offset="0.461" stop-color="#8D9CA8" stop-opacity="0.222"/>
<stop offset="0.62" stop-color="#8D9CA8" stop-opacity="0.395"/>
<stop offset="0.781" stop-color="#8D9CA8" stop-opacity="0.618"/>
<stop offset="0.94" stop-color="#8D9CA8" stop-opacity="0.887"/>
<stop offset="1" stop-color="#8D9CA8"/>
</linearGradient>
<linearGradient id="paint40_linear_13059_7133" x1="48.7073" y1="76.6645" x2="53.951" y2="81.9081" gradientUnits="userSpaceOnUse">
<stop stop-color="#60B7FF"/>
<stop offset="0.189" stop-color="#5EB2FC"/>
<stop offset="0.385" stop-color="#58A6F6"/>
<stop offset="0.585" stop-color="#4F91EB"/>
<stop offset="0.786" stop-color="#4274DD"/>
<stop offset="0.987" stop-color="#324FCA"/>
<stop offset="1" stop-color="#314DC9"/>
</linearGradient>
<linearGradient id="paint41_linear_13059_7133" x1="40.2423" y1="90.259" x2="35.9687" y2="94.5326" gradientUnits="userSpaceOnUse">
<stop stop-color="#192A7D" stop-opacity="0"/>
<stop offset="0.174" stop-color="#192A7D" stop-opacity="0.033"/>
<stop offset="0.354" stop-color="#192A7D" stop-opacity="0.133"/>
<stop offset="0.537" stop-color="#192A7D" stop-opacity="0.299"/>
<stop offset="0.722" stop-color="#192A7D" stop-opacity="0.531"/>
<stop offset="0.907" stop-color="#192A7D" stop-opacity="0.827"/>
<stop offset="1" stop-color="#192A7D"/>
</linearGradient>
<clipPath id="clip0_13059_7133">
<rect width="130" height="130" fill="white" transform="translate(0.5)"/>
</clipPath>
</defs>
</svg>
