<svg width="131" height="130" viewBox="0 0 131 130" fill="none" xmlns="http://www.w3.org/2000/svg">
<path d="M113.5 104.625C112 114.25 95.75 121.875 75 124.125C70.875 124.625 66.75 124.875 62.375 124.875C57.5 124.875 52.875 124.625 48.5 124C28.375 121.5 12.75 114 11.25 104.625C11.125 103.625 10.875 102.75 10.75 101.75C10.5 100.625 10.375 99.5001 10.125 98.5001C9.25001 93.5001 8.50001 91.2501 7.00001 84.7501C6.25001 81.7501 5.00001 76.6251 4.87501 73.3751C4.75001 68.0001 16.5 72.1251 21 70.5001C46.25 61.2501 76.5 59.6251 104.375 68.1251C107.875 69.1251 116.375 66.5001 118.75 69.3751C121.75 73.0001 115.375 91.8751 113.5 104.625Z" fill="#D7E3F7"/>
<path d="M115.125 96.25C114.875 97.375 114.625 98.625 114.375 99.75C80.25 117.625 42.625 116.875 10.625 101.625C10.375 100.5 10.25 99.375 10 98.375C42.75 114.75 81.25 114.875 115.125 96.25Z" fill="#C0D3ED"/>
<path d="M81 112.375L75 124.125C74 124.25 73 124.375 72 124.375C68.875 124.625 65.625 124.75 62.25 124.75C58.875 124.75 55.5 124.625 52.25 124.375C50.875 124.25 49.625 124.125 48.25 124L42.375 112.5C41.875 111.5 42.25 110.375 43.375 110C57.875 104.75 69.875 105.375 80.25 110C81.125 110.375 81.5 111.5 81 112.375Z" fill="#B5CBE5"/>
<path d="M75.25 113.125L71.375 124.375C68.25 124.625 65.75 124.75 62.375 124.75C59 124.75 55.625 124.625 52.375 124.375L47.5 114.125C47.25 113.75 47.5 113.25 47.875 113C57 109.25 65.875 109.75 74.5 112.125C75.125 112.25 75.375 112.75 75.25 113.125Z" fill="#19223C"/>
<path d="M54.875 96.875C37.875 101.625 19.625 96.875 7 84.75C7 84.625 5.75 80.125 5.5 73.625C5.5 73.125 5.5 72.125 5.75 71.75C6.625 74 7.375 76.5 8.875 78.5C12.5 83.125 17.5 86.5 22.625 89.25C32.625 94.375 43.75 97.625 54.875 96.875Z" fill="black"/>
<path d="M62.375 99.8752C29.625 99.8752 5 88.7502 5 74.0002C5 58.0002 30.75 50.8752 46.75 49.0002C57.375 47.7502 68.875 47.7502 79.375 49.2502C92.625 51.0002 113.375 56.3752 118.5 68.6252C119.25 70.3752 119.625 72.1252 119.625 74.0002C119.625 88.7502 95 99.8752 62.375 99.8752Z" fill="#C5D6EF"/>
<path d="M115.5 74.0001C115.5 86.0001 91.75 95.7501 62.375 95.7501C33 95.6251 9.25 86.0001 9.25 74.0001C9.25 72.2501 9.75 70.6251 10.625 69.1251C16.25 59.1251 35.875 54.6251 47.375 53.2501C58 52.0001 69.375 52.1251 79 53.3751C95.5 55.6251 108.375 61.0001 113.375 67.7501C114 68.5001 114.5 69.3751 114.75 70.2501C115.125 71.3751 115.5 72.6251 115.5 74.0001Z" fill="#E9F1FF"/>
<path d="M36.125 80.625C35.875 81.25 35.125 81.75 34.25 81.5C26 78.375 17.625 75.125 9.5 71.75C9.75 70.875 10.125 70 10.5 69.125C18.625 72.5 27 75.75 35.25 78.875C36 79.125 36.375 79.875 36.125 80.625ZM50.5 75.375C49.875 75.375 49.25 74.875 49.125 74.25C47.375 67.5 45.875 59.75 44.5 52.75C45.5 52.625 46.125 52.125 47.125 52C48.5 58.875 50.25 66.75 51.875 73.5C52.125 74.5 51.375 75.375 50.5 75.375ZM78.875 53.375C77.125 60.375 75.125 67.375 73 74.375C72.75 75 72.25 75.375 71.625 75.375C70.625 75.375 69.875 74.375 70.25 73.375C72.25 66.625 74.25 59.875 76 53C76.875 53.125 77.875 53.25 78.875 53.375ZM114.625 70.25C103.75 74.375 88.375 79.375 87.375 79.375C86.75 79.375 86.25 79 86 78.375C85.75 77.625 86.25 76.875 87 76.625C95.875 74.125 104.625 71.125 113.25 67.875C113.75 68.5 114.25 69.375 114.625 70.25Z" fill="#C0D3ED"/>
<path d="M96.25 80.625C97.875 82 99.25 84.25 98.5 86.125C98 87.5 96.5 88.75 95.125 89.5C84.875 95.25 70.625 95.875 58.875 95.25C63.625 93 69.75 92.75 73.5 88.875C75.375 87 76.375 84.25 75.375 81.875C74.375 79.5 71.875 78.125 69.375 77.375C66.875 76.625 64.125 76.375 61.75 75.375C72 75.25 88.375 73.75 96.25 80.625Z" fill="black"/>
<path d="M27.5 81C25.875 82.5 24.625 84.625 25.375 86.625C25.875 88 27.375 89.125 28.75 89.875C39 95.375 53.375 95.875 65.125 95.125C60.25 93 54.25 92.75 50.5 89C48.625 87.125 47.625 84.375 48.625 82C49.5 79.625 52.125 78.25 54.625 77.375C57.125 76.625 59.875 76.25 62.25 75.25C51.625 75.375 35.25 74 27.5 81Z" fill="black"/>
<path d="M62.125 95.8751C49 95.8751 37.625 93.2501 32.125 89.5001C27.5 86.2501 27.5 82.3751 32.875 79.1251C46 71.1251 80.375 71.5001 91.875 79.5001C103.25 87.2501 86.375 95.8751 62.125 95.8751Z" fill="#9CED5A"/>
<path d="M40.375 79.8751V89.1251C40.375 89.5001 40.125 89.7501 39.625 89.7501C38.75 89.7501 36 89.7501 32 89.5001C31.375 89.0001 30.75 88.6251 30.375 88.1251C33.25 88.3751 36.125 88.5001 38.875 88.5001V80.5001C36.375 80.5001 31.25 80.3751 31.125 80.2501C31.625 79.8751 32.125 79.3751 32.875 79.0001C33.375 79.0001 36.625 79.1251 39.625 79.1251C40 79.2501 40.375 79.5001 40.375 79.8751ZM94.75 87.0001C94.5 87.3751 94.125 87.8751 93.75 88.2501C93.25 88.2501 89.75 88.0001 85.875 87.7501C85.5 87.7501 85.25 87.5001 85.25 87.1251C85.25 87.0001 84.625 78.6251 84.875 78.3751C85.25 78.0001 85.375 78.2501 89.75 78.2501C90.5 78.6251 91.25 79.1251 92 79.5001L86.25 79.3751C86.375 81.3751 86.5 84.1251 86.75 86.3751C90.375 86.7501 91.625 86.8751 94.75 87.0001ZM62.25 78.3751C59.875 78.3751 57.875 80.7501 57.875 83.6251C57.875 86.5001 59.75 88.8751 62.25 88.8751C64.75 88.8751 66.625 86.5001 66.625 83.6251C66.5 80.7501 64.625 78.3751 62.25 78.3751ZM62.25 87.6251C60.625 87.6251 59.375 85.7501 59.375 83.6251C59.375 81.5001 60.75 79.6251 62.25 79.6251C63.875 79.6251 65.125 81.5001 65.125 83.6251C65.125 85.7501 63.75 87.6251 62.25 87.6251Z" fill="white"/>
<path d="M62.125 95.5C61.75 95.5 61.5 95.25 61.5 94.875V74C61.5 73.625 61.75 73.375 62.125 73.375C62.5 73.375 62.75 73.625 62.75 74V94.875C62.75 95.25 62.5 95.5 62.125 95.5Z" fill="white"/>
<path d="M104 28.25C103.375 25.5 102.125 22.875 100.5 20.75C98.25 17.875 96.875 20.25 95.375 21.375C93.75 22.625 91.375 22.5 89.625 21.625C85.625 19.75 84.625 15.25 82.375 16C81.5 16.25 81.125 17.125 80.875 18C78.875 24.5 78.125 31.5 76.375 38.125C73.875 47.25 69.125 55.875 62.75 62.875C61.125 64.625 58.875 67.625 56.25 67.875C66.625 67.125 73.875 55.5 79.75 46.75C76.25 56 71.25 63.125 65.5 67.5C71.875 64.75 78 59.25 83 51.375C78.375 60.625 69 69 62.5 72.875C66.375 72.125 73 67.75 76.375 64.875C80 61.75 83.5 57.75 87.25 53.5C84.625 58.625 81.25 63 77.75 66.125C81.375 63.5 84.875 60 88.125 55.75C85.375 62.125 81.125 67.25 76.25 70.25C81.75 67.75 87.5 63.125 90.5 56.125C88 61.875 79.875 70.25 84.125 67.25C95.5 59.125 108.75 48.75 116.125 27.25" fill="#F9CF6A"/>
<path d="M91.75 59.25C94.125 56.625 97.125 54.5 99.5 51.75C102 48.875 104.125 45.875 105.875 42.5C107.625 39.25 114.375 26.375 108.625 24.25C107.125 23.625 105.375 24 103.75 24.125C97.75 24.5 91.75 22.25 87.5 18.125C84.25 29.625 79.875 40.75 74.375 51.375C77 48 79.75 44.625 82.375 41.125C80.625 49.375 81.5 49.375 73.375 61.375C78.375 55.75 83.25 50.125 88.25 44.5C87.125 49.125 85 53.625 82.125 57.5C85.875 54.5 89.125 51 92 47.25C90.625 49.75 89.25 52.375 87.875 54.875C90.625 53 92.875 50.625 94.625 47.875C92.75 53 89.875 57.625 86.25 61.625L100 47.875C98.5 52.125 94.75 55.75 91.75 59.25Z" fill="#FCE39E"/>
<path d="M77.375 30.5001C77.375 30.3751 76.375 27.3751 76.75 23.2501C78.25 8.62506 94.875 0.375056 107.5 8.37506C108 8.75006 108.5 9.12506 108.875 9.50006C109.5 10.0001 110.25 10.6251 110.75 11.1251C116.125 16.3751 117.75 24.1251 116 30.5001C113.625 39.6251 105.125 45.8751 95.5 45.3751C93.25 45.2501 91 44.7501 89.25 44.0001C79.5 40.1251 77.375 30.6251 77.375 30.5001Z" fill="#9AC2FC"/>
<path d="M93.375 24.6251C93.125 24.6251 92.625 25.0001 92.25 25.1251C91 25.6251 89.875 26.0001 88.625 26.5001C87.75 26.7501 85.75 27.1251 85.625 28.2501C85.625 28.7501 85.875 29.5001 86 30.0001C86.375 32.0001 86.75 34.0001 87.375 36.0001C87.5 36.2501 87.625 36.3751 87.875 36.5001C90.375 37.1251 93 37.5001 95.5 37.6251C95.75 37.6251 96 37.5001 96.125 37.2501C99 31.6251 100 31.5001 99.375 30.7501C97.875 29.0001 96.25 27.5001 94.5 25.8751C94.375 25.3751 93.875 24.6251 93.375 24.6251ZM76.75 23.2501C77.25 18.2501 79.625 14.7501 79.625 14.8751C79.875 14.5001 80.25 14.1251 80.5 13.7501C81.75 15.2501 82.5 15.1251 82.375 15.5001C81.5 17.8751 80.875 20.3751 80.75 23.0001C80.75 23.1251 80.75 23.1251 80.625 23.1251C79.375 23.5001 78.375 24.2501 77.5 25.2501C77.375 25.3751 77.25 25.3751 77.25 25.2501C77.125 24.6251 76.875 24.0001 76.75 23.2501ZM89.875 11.7501C91.875 12.8751 93.875 14.3751 95.5 16.0001C98.125 15.2501 100.75 14.3751 103.25 13.6251C103 11.8751 102.625 10.1251 102 8.50006C99.375 7.62506 96.625 7.00006 93.75 7.12506C92.125 8.37506 90.875 9.87506 89.875 11.7501ZM110.75 32.3751C108 28.0001 107.375 28.1251 107.625 27.5001C108.5 25.2501 109.25 22.8751 109.625 20.5001C109.625 20.2501 109.875 20.0001 110.25 20.0001C113.125 20.1251 113.875 20.1251 114 20.6251C114.5 22.5001 115.875 27.2501 115.5 27.7501C114.375 29.5001 113.125 31.1251 111.5 32.3751C111.25 32.7501 110.875 32.6251 110.75 32.3751ZM97.625 44.6251C98.75 44.0001 99.625 43.1251 100.375 42.0001C103.25 41.8751 105.875 41.0001 108.25 39.3751C108.375 40.0001 108.5 40.7501 108.75 41.3751C105.5 43.8751 101.625 45.1251 98 45.3751L97.625 44.6251ZM78.5 33.6251C80.25 35.3751 81.375 37.6251 84.5 38.8751C85.375 40.6251 86.625 42.2501 88.25 43.5001C87.25 43.1251 84.625 41.6251 82.5 39.5001C80.5 37.5001 79.5 35.7501 78.5 33.6251Z" fill="#071D61"/>
<path d="M109.5 20.5C107.625 17.125 104.75 14.375 101.375 12.625C101.25 12.5 101.125 12.375 101.25 12.25C101.375 12.125 101.5 12 101.625 12.125C105.125 13.875 108.125 16.75 110 20.25C110.125 20.375 110 20.625 109.875 20.625C109.75 20.75 109.625 20.625 109.5 20.5ZM97.75 31C97.375 31 97.375 30.375 97.75 30.375C102 30.375 105.75 28.5 108.25 27C108.625 26.75 108.875 27.25 108.625 27.5C105 29.75 101.25 31 97.75 31ZM106.875 40.375C108.125 39.25 111.875 35.375 111 31.5C110.875 31.125 111.5 31 111.625 31.25C112.5 35.375 108.875 39.25 107.25 40.75C107 41 106.625 40.625 106.875 40.375ZM100.75 42.625C98.625 41.25 96.875 39.375 95.375 37.25C95.125 36.875 95.625 36.5 95.875 36.875C97.25 38.875 99 40.75 101 42.125C101.375 42.375 101 42.875 100.75 42.625ZM84 38.625C85.5 37.875 86.875 36.625 87.875 35.125C88.125 34.75 88.625 35.125 88.375 35.5C87.375 37 86 38.375 84.25 39.125C83.875 39.375 83.625 38.875 84 38.625ZM85.875 28C83.375 26.375 81.375 24.375 80 22.375C79.75 22 80.25 21.625 80.5 22C81.875 24 83.875 25.875 86.25 27.5C86.375 27.625 86.375 27.75 86.375 27.875C86.25 28.125 86 28.125 85.875 28ZM92.25 25.75C94 22 95.125 18 95.625 13.875C95.625 13.5 96.25 13.5 96.25 14C95.75 18.25 94.625 22.25 92.875 26.125C92.625 26.375 92 26.125 92.25 25.75ZM81.5 15.625C83.75 12.875 87.375 12.125 90.75 11.375C91.125 11.25 91.25 11.875 90.875 12C87.625 12.625 84.125 13.375 82 16C81.75 16.375 81.25 16 81.5 15.625ZM101.125 8.625C101.125 8.5 101.125 8.375 101.25 8.375C101.375 8.375 101.5 8.25 101.625 8.25C103.5 7.875 105.5 7.875 107.375 8.375C108 8.75 108.5 9.125 108.875 9.5C106.5 8.5 103.875 8.25 101.375 8.875L101.125 8.625ZM91.25 6C91.5 5.875 91.75 5.875 92.125 5.75C93 6 93.75 6.5 94.5 7C94.75 7.25 94.5 7.625 94.25 7.375C93.25 6.875 92.25 6.375 91.25 6ZM115 27.625C115.125 27.5 115.25 27.625 115.375 27.75C115.75 28.375 116.125 29 116.25 29.625C116.25 29.875 116.125 30.25 116 30.5C115.625 29.125 115.125 28.375 114.875 28C114.875 27.875 114.875 27.75 115 27.625ZM76.75 27.5C76.875 26.625 77 25.625 77.25 24.75C77.25 24.625 77.375 24.625 77.375 24.625H77.5C77.625 24.625 77.75 24.75 77.625 24.875C77.125 26.625 76.875 28.625 77.125 30.5C76.875 28.5 76.875 27.75 76.75 27.5ZM89.25 44H89.375C92.125 45.125 95.375 45.25 97.875 44.5C98.125 44.375 98.375 44.875 98 45C97.25 45.25 96.375 45.375 95.5 45.5C93.375 45.25 91.25 44.75 89.25 44ZM113.25 20.875C113.875 19.5 114.375 18 114.625 16.5L115 17.25C114.75 18.625 114.25 19.875 113.625 21.125C113.625 21.25 113.375 21.25 113.25 21.25V20.875Z" fill="#071D61"/>
<path d="M102.875 19.75C101.125 19.75 99.75 21.125 99.75 22.875C99.75 21.125 98.375 19.75 96.625 19.75C98.375 19.75 99.75 18.375 99.75 16.625C99.75 18.375 101.125 19.75 102.875 19.75ZM106.125 25C105.125 25 104.375 25.75 104.375 26.75C104.375 25.75 103.625 25 102.625 25C103.625 25 104.375 24.25 104.375 23.25C104.375 24.25 105.125 25 106.125 25Z" fill="white"/>
<path d="M9.75 65.375C9.375 65.375 9.125 65.125 9.125 64.75V47.625C9.125 47.25 9.375 47 9.75 47C10.125 47 10.375 47.25 10.375 47.625V64.875C10.375 65.125 10.125 65.375 9.75 65.375ZM46 50.375C45.625 50.375 45.375 50.125 45.375 49.75V34.75C45.375 34.375 45.625 34.125 46 34.125C46.375 34.125 46.625 34.375 46.625 34.75V49.75C46.625 50.125 46.375 50.375 46 50.375ZM112.5 63.75C112.125 63.75 111.875 63.5 111.875 63.125V48.125C111.875 47.75 112.125 47.5 112.5 47.5C112.875 47.5 113.125 47.75 113.125 48.125V63.125C113.125 63.5 112.75 63.75 112.5 63.75Z" fill="black"/>
<path d="M45.875 34.75C46.875 35.875 48.625 36 50.125 35.75C51.625 35.5 53.125 34.875 54.625 35C56.375 35.125 57.875 36 59.25 37C59.5 37.125 59.375 37.5 59.125 37.5C57.75 37.5 56.125 38.5 55 39.375C53.625 40.5 52.375 41.875 50.75 42.5C49 43.125 47 42.625 45.75 41.375C46 39.125 46.125 36.875 45.875 34.75Z" fill="#ED3151"/>
<path d="M112.625 47.875C113.625 49 115.375 49.125 116.875 48.875C120.375 48.25 121.75 47 126 50.125C126.25 50.25 126.125 50.625 125.875 50.625C124.5 50.625 122.875 51.625 121.75 52.5C120.375 53.625 119.125 55 117.5 55.625C115.75 56.25 113.75 55.75 112.5 54.5C112.625 52.25 112.75 50 112.625 47.875ZM9.625 47.625C10.625 48.75 12.375 48.875 13.875 48.625C17.375 48 18.75 46.75 23 49.875C23.25 50 23.125 50.375 22.875 50.375C21.5 50.375 19.875 51.375 18.75 52.25C17.375 53.375 16.125 54.75 14.5 55.375C12.75 56 10.75 55.5 9.5 54.25C9.75 52 9.875 49.875 9.625 47.625Z" fill="#F74F6C"/>
</svg>
